<svg xmlns="http://www.w3.org/2000/svg" xmlns:xlink="http://www.w3.org/1999/xlink" width="24" height="24" viewBox="0 0 24 24">
  <defs>
    <clipPath id="clip-path">
      <rect id="사각형_1294" data-name="사각형 1294" width="24" height="24" transform="translate(948 4931)" fill="#fff"/>
    </clipPath>
  </defs>
  <g id="apple_icon2" transform="translate(-948 -4931)" clip-path="url(#clip-path)">
    <path id="apple-fill" d="M12.633,7.816c-.948,0-2.415-1.078-3.961-1.039A5.848,5.848,0,0,0,3.711,9.79c-2.117,3.675-.545,9.1,1.519,12.09,1.013,1.454,2.208,3.091,3.792,3.039,1.519-.065,2.091-.987,3.935-.987s2.351.987,3.961.948c1.636-.026,2.675-1.48,3.675-2.948a13.051,13.051,0,0,0,1.662-3.415,5.3,5.3,0,0,1-3.221-4.857,5.387,5.387,0,0,1,2.6-4.558,5.622,5.622,0,0,0-4.389-2.377C15.243,6.569,13.568,7.816,12.633,7.816Zm3.376-3.065A5.25,5.25,0,0,0,17.256.92a5.4,5.4,0,0,0-3.532,1.818,5.021,5.021,0,0,0-1.273,3.714A4.477,4.477,0,0,0,16.009,4.751Z" transform="translate(947.519 4930.08)" fill="#fff"/>
  </g>
</svg>
