<svg xmlns="http://www.w3.org/2000/svg" xmlns:xlink="http://www.w3.org/1999/xlink" width="16" height="16" viewBox="0 0 16 16">
  <defs>
    <clipPath id="clip-path">
      <rect id="사각형_1290" data-name="사각형 1290" width="16" height="16" transform="translate(435 517)" fill="#fff"/>
    </clipPath>
  </defs>
  <g id="apple_icon" transform="translate(-435 -517)" clip-path="url(#clip-path)">
    <path id="apple-fill" d="M9.324,5.517c-.632,0-1.61-.719-2.641-.693A3.9,3.9,0,0,0,3.376,6.833c-1.411,2.45-.364,6.069,1.013,8.06.675.97,1.472,2.061,2.528,2.026,1.013-.043,1.394-.658,2.623-.658s1.567.658,2.641.632c1.091-.017,1.783-.987,2.45-1.965a8.7,8.7,0,0,0,1.108-2.277,3.532,3.532,0,0,1-2.147-3.238,3.592,3.592,0,0,1,1.732-3.039A3.748,3.748,0,0,0,12.4,4.79C11.064,4.686,9.947,5.517,9.324,5.517Zm2.251-2.043A3.5,3.5,0,0,0,12.406.92a3.6,3.6,0,0,0-2.355,1.212A3.348,3.348,0,0,0,9.2,4.608,2.985,2.985,0,0,0,11.575,3.474Z" transform="translate(433.778 516.08)" fill="#fff"/>
  </g>
</svg>
