<svg xmlns="http://www.w3.org/2000/svg" xmlns:xlink="http://www.w3.org/1999/xlink" width="32" height="32" viewBox="0 0 32 32">
  <defs>
    <clipPath id="clip-path">
      <circle id="타원_27" data-name="타원 27" cx="16" cy="16" r="16" transform="translate(65 119)" fill="#fff"/>
    </clipPath>
  </defs>
  <g id="bitcoin_icon" transform="translate(-65 -119)" clip-path="url(#clip-path)">
    <g id="Layer_x0020_1" transform="translate(65.002 119)">
      <g id="_1421344023328" transform="translate(0 0)">
        <path id="패스_682" data-name="패스 682" d="M31.518,19.87A15.994,15.994,0,1,1,19.867.479,16,16,0,0,1,31.518,19.87h0Z" transform="translate(0 0)" fill="#f7931a"/>
        <path id="패스_683" data-name="패스 683" d="M25.73,15.637c.318-2.129-1.3-3.274-3.519-4.037l.719-2.884-1.756-.437-.7,2.808c-.462-.115-.936-.224-1.407-.331l.705-2.827L18.017,7.49,17.3,10.374c-.382-.087-.757-.173-1.121-.263l0-.009-2.421-.6-.467,1.875s1.3.3,1.275.317a.935.935,0,0,1,.818,1.021L14.565,16a1.427,1.427,0,0,1,.183.059l-.186-.046-1.148,4.6a.639.639,0,0,1-.8.417c.018.025-1.276-.318-1.276-.318l-.872,2.01,2.285.57c.425.107.842.218,1.252.323l-.727,2.917,1.754.437.72-2.886c.479.13.944.25,1.4.363l-.717,2.873,1.756.437.726-2.912c2.994.567,5.245.338,6.193-2.37.764-2.18-.038-3.438-1.613-4.258a2.8,2.8,0,0,0,2.242-2.578h0Zm-4.011,5.625c-.543,2.18-4.213,1-5.4.706l.964-3.865c1.19.3,5.007.885,4.44,3.159Zm.543-5.657c-.495,1.983-3.55.976-4.541.729l.874-3.505c.991.247,4.183.708,3.667,2.777Z" transform="translate(-2.676 -1.916)" fill="#fff"/>
      </g>
    </g>
  </g>
</svg>
