<svg id="BTC_logo2" xmlns="http://www.w3.org/2000/svg" width="103" height="26.146" viewBox="0 0 103 26.146">
  <g id="그룹_3" data-name="그룹 3">
    <path id="패스_1" data-name="패스 1" d="M927.137,17.874a9.159,9.159,0,0,1-6.63,2.788,8.726,8.726,0,0,1-8.946-8.466,8.726,8.726,0,0,1,8.946-8.466,9.154,9.154,0,0,1,6.63,2.788h4.778A12.994,12.994,0,0,0,920.508,0C913.39,0,907.62,5.46,907.62,12.2s5.77,12.2,12.888,12.2a13,13,0,0,0,11.407-6.518Z" transform="translate(-828.915)" fill="#fff"/>
    <path id="패스_2" data-name="패스 2" d="M418.576,17.32h0a7.051,7.051,0,0,0-2.2-5.124,7.051,7.051,0,0,0,2.2-5.124h0A7.072,7.072,0,0,0,411.5,0H394.28V24.392H411.5a7.072,7.072,0,0,0,7.072-7.073ZM398.183,3.9H411.5a3.17,3.17,0,1,1,0,6.341H398.183Zm0,10.247H411.5a3.17,3.17,0,1,1,0,6.341H398.183V14.15Z" transform="translate(-360.09)" fill="#fff"/>
    <path id="패스_3" data-name="패스 3" d="M694.086,24.289V3.9h8.054V0H682.13V3.9h8.054V24.289Z" transform="translate(-622.979)" fill="#fff"/>
    <g id="그룹_2" data-name="그룹 2">
      <path id="패스_4" data-name="패스 4" d="M128,276.889h3.861v-.67A13.646,13.646,0,0,1,128,274.55Z" transform="translate(-116.9 -250.742)" fill="#fff"/>
      <path id="패스_5" data-name="패스 5" d="M133.89,79.112a6.78,6.78,0,0,0,3.35,5.843V73.27a6.779,6.779,0,0,0-3.35,5.843Z" transform="translate(-122.28 -66.916)" fill="#fff"/>
      <path id="패스_6" data-name="패스 6" d="M11.662,0H0V3.861H7.232A14.037,14.037,0,0,1,11.662,0Z" fill="#fff"/>
      <path id="패스_7" data-name="패스 7" d="M83.586,20.49a8.293,8.293,0,1,1,0-16.587h7.673V0H83.586a12.2,12.2,0,0,0-12.2,12.2h0a12.2,12.2,0,0,0,12.2,12.2h7.673v-3.9H83.586Z" transform="translate(-65.199)" fill="#fff"/>
    </g>
  </g>
</svg>
