<svg xmlns="http://www.w3.org/2000/svg" xmlns:xlink="http://www.w3.org/1999/xlink" width="176.185" height="21" viewBox="0 0 176.185 21">
  <defs>
    <clipPath id="clip-path">
      <rect id="사각형_1593" data-name="사각형 1593" width="176.185" height="21" fill="none"/>
    </clipPath>
  </defs>
  <g id="BTC_Exchange_logo1" transform="translate(0 0)">
    <g id="그룹_511" data-name="그룹 511" transform="translate(0 0)" clip-path="url(#clip-path)">
      <path id="패스_833" data-name="패스 833" d="M102.264.646h6.191c3.064,0,4.936,1.6,4.936,4.191a3.576,3.576,0,0,1-2.234,3.575,3.421,3.421,0,0,1,2.468,3.575c0,2.659-1.851,4.213-5.063,4.213h-6.3Zm2.724,2.4V7.284h3.3a2.038,2.038,0,0,0,2.319-2.17c0-1.34-.851-2.063-2.383-2.063Zm0,6.532V13.8h3.468c1.532,0,2.383-.745,2.383-2.149,0-1.319-.872-2.063-2.383-2.063Z" transform="translate(-58.486 -0.369)" fill="#00e0ff"/>
      <path id="패스_834" data-name="패스 834" d="M133.312,18.559v-8.34h-2.021V8.048h2.021V4.771h2.6V8.048h2.042v2.17h-2.042v8.34Z" transform="translate(-75.086 -2.729)" fill="#00e0ff"/>
      <path id="패스_835" data-name="패스 835" d="M154.19,11.68c2.872,0,4.83,1.6,5.106,4.127h-2.6A2.276,2.276,0,0,0,154.3,14c-1.66,0-2.766,1.255-2.766,3.234s1.021,3.212,2.681,3.212a2.332,2.332,0,0,0,2.489-1.787h2.617a4.83,4.83,0,0,1-5.106,4.128c-3.191,0-5.277-2.213-5.277-5.553,0-3.255,2.149-5.553,5.255-5.553" transform="translate(-85.177 -6.68)" fill="#00e0ff"/>
      <path id="패스_836" data-name="패스 836" d="M192.026,16.2V.646h9.659V3.157H194.75v4h6.212v2.4H194.75v4.127h6.936V16.2Z" transform="translate(-109.822 -0.37)" fill="#00e0ff"/>
      <path id="패스_837" data-name="패스 837" d="M217.97,22.936l3.617-5.149-3.617-5.362h3.021L223.311,16l2.234-3.575h2.915l-3.575,5.319,3.468,5.191h-2.979l-2.234-3.468-2.213,3.468Z" transform="translate(-124.659 -7.106)" fill="#00e0ff"/>
      <path id="패스_838" data-name="패스 838" d="M248.822,11.68c2.872,0,4.83,1.6,5.107,4.127h-2.6a2.276,2.276,0,0,0-2.4-1.808c-1.659,0-2.765,1.255-2.765,3.234s1.021,3.212,2.681,3.212a2.332,2.332,0,0,0,2.489-1.787h2.617a4.83,4.83,0,0,1-5.106,4.128c-3.191,0-5.277-2.213-5.277-5.553,0-3.255,2.149-5.553,5.255-5.553" transform="translate(-139.298 -6.68)" fill="#00e0ff"/>
      <path id="패스_839" data-name="패스 839" d="M272.344,15.829V0h2.617V6.68A3.947,3.947,0,0,1,278.365,5c2.6,0,3.958,1.638,3.958,4.361v6.468h-2.6V9.978c0-1.766-.872-2.617-2.191-2.617a2.5,2.5,0,0,0-2.6,2.724v5.745Z" transform="translate(-155.756 0.001)" fill="#00e0ff"/>
      <path id="패스_840" data-name="패스 840" d="M300.525,19.51c0-1.936,1.4-3.149,3.893-3.34l3.149-.234V15.7c0-1.426-.851-2-2.17-2-1.532,0-2.383.638-2.383,1.745H300.8c0-2.277,1.872-3.766,4.723-3.766,2.83,0,4.574,1.532,4.574,4.447v6.383h-2.276l-.191-1.553a3.7,3.7,0,0,1-3.511,1.83c-2.233,0-3.6-1.3-3.6-3.276m7.064-1.256V17.7l-2.192.17c-1.617.149-2.234.681-2.234,1.532,0,.958.638,1.426,1.809,1.426a2.4,2.4,0,0,0,2.617-2.575" transform="translate(-171.873 -6.68)" fill="#00e0ff"/>
      <path id="패스_841" data-name="패스 841" d="M328.854,22.509V12h2.4l.212,1.362a3.876,3.876,0,0,1,3.362-1.681c2.638,0,4,1.638,4,4.361v6.468h-2.6V16.658c0-1.766-.872-2.617-2.213-2.617a2.514,2.514,0,0,0-2.574,2.809v5.659Z" transform="translate(-188.075 -6.68)" fill="#00e0ff"/>
      <path id="패스_842" data-name="패스 842" d="M361.738,11.63a3.708,3.708,0,0,1,3.426,1.787l.149-1.447h2.4v9.979c0,3.51-2.107,5.7-5.511,5.7-3.021,0-5.085-1.723-5.4-4.532h2.6a2.514,2.514,0,0,0,2.808,2.17,2.72,2.72,0,0,0,2.936-2.872V20.673a4.118,4.118,0,0,1-3.468,1.6c-2.979,0-4.936-2.234-4.936-5.277,0-3.063,2-5.361,5-5.361m.447,8.383a2.812,2.812,0,0,0,2.893-3.085,2.771,2.771,0,0,0-2.893-3.021,2.8,2.8,0,0,0-2.83,3.021,2.844,2.844,0,0,0,2.83,3.085" transform="translate(-204.022 -6.651)" fill="#00e0ff"/>
      <path id="패스_843" data-name="패스 843" d="M387.206,17.255c0-3.3,2.149-5.575,5.234-5.575,3.149,0,5.149,2.106,5.149,5.383v.787l-7.915.021c.191,1.851,1.17,2.787,2.893,2.787,1.426,0,2.362-.553,2.66-1.554h2.4c-.447,2.3-2.362,3.681-5.106,3.681a5.2,5.2,0,0,1-5.319-5.532m2.532-1.043h5.277a2.332,2.332,0,0,0-2.553-2.4,2.551,2.551,0,0,0-2.724,2.4" transform="translate(-221.447 -6.68)" fill="#00e0ff"/>
      <path id="패스_844" data-name="패스 844" d="M29.013,1.936h-.019a9.657,9.657,0,0,0-7.835,4.027q-.154.214-.3.436a17.484,17.484,0,0,1-1.956,2.328,17.4,17.4,0,0,1-7.046,4.283l.246,2.224L4.851,11.5l5.867-6.139.453,2.655a12.431,12.431,0,0,0,4.247-2.79q.385-.385.732-.8A9.659,9.659,0,0,0,3.519,4.145q-.179.148-.351.3-.344.312-.656.656-.156.172-.3.351-.222.269-.424.553-.135.19-.261.386c-.06.094-.119.189-.176.285a9.635,9.635,0,0,0-.469.894q-.071.153-.136.31a9.614,9.614,0,0,0-.409,1.2q-.066.245-.12.5-.059.276-.1.558A9.777,9.777,0,0,0,0,11.607a9.637,9.637,0,0,0,2.209,6.152q.148.179.3.351.312.344.656.656.171.156.351.3a9.672,9.672,0,0,0,13.955-1.749q.212-.289.4-.594a17.469,17.469,0,0,1,8.936-6.515l-.247-2.225,7.256,3.736-5.868,6.139L27.5,15.207A12.425,12.425,0,0,0,23.254,18q-.38.38-.723.787a9.635,9.635,0,0,0,6.463,2.494h.019a9.671,9.671,0,0,0,0-19.342" transform="translate(0 -1.107)" fill="#00e0ff"/>
    </g>
  </g>
</svg>
