<svg xmlns="http://www.w3.org/2000/svg" width="77.384" height="18.569" viewBox="0 0 77.384 18.569">
  <g id="BTC_logo" transform="translate(0 1)">
    <g id="그룹_3" data-name="그룹 3">
      <g id="패스_1" data-name="패스 1" transform="translate(-848.263)" fill="#00e0ff">
        <path d="M 916.2799072265625 16.89002227783203 C 911.22900390625 16.89002227783203 907.1198120117188 12.98945236206055 907.1198120117188 8.195012092590332 C 907.1198120117188 3.400572061538696 911.22900390625 -0.4999979138374329 916.2799072265625 -0.4999979138374329 C 919.6847534179688 -0.4999979138374329 922.7893676757812 1.276502132415771 924.382080078125 4.136241912841797 L 924.7960205078125 4.879531860351562 L 923.9452514648438 4.879531860351562 L 920.734619140625 4.879531860351562 L 920.5210571289062 4.879531860351562 L 920.3733520507812 4.725222110748291 C 919.3279418945312 3.632742166519165 917.8359375 3.006172180175781 916.2799072265625 3.006172180175781 C 913.2407836914062 3.006172180175781 910.7682495117188 5.333872318267822 910.7682495117188 8.195012092590332 C 910.7682495117188 11.05615234375 913.2407836914062 13.38385200500488 916.2799072265625 13.38385200500488 C 917.8353881835938 13.38385200500488 919.3274536132812 12.75725173950195 920.3734741210938 11.66471195220947 L 920.5211181640625 11.5104923248291 L 920.734619140625 11.5104923248291 L 923.9452514648438 11.5104923248291 L 924.7960205078125 11.5104923248291 L 924.382080078125 12.25378227233887 C 922.7893676757812 15.11352252960205 919.6847534179688 16.89002227783203 916.2799072265625 16.89002227783203 Z" stroke="none"/>
        <path d="M 916.2799072265625 16.39002227783203 C 919.6065063476562 16.39002227783203 922.4949340820312 14.61455249786377 923.9452514648438 12.0104923248291 L 920.734619140625 12.0104923248291 C 919.6339111328125 13.16015243530273 918.044189453125 13.88385200500488 916.2799072265625 13.88385200500488 C 912.9649047851562 13.88385200500488 910.2682495117188 11.33165168762207 910.2682495117188 8.195012092590332 C 910.2682495117188 5.058372020721436 912.9649047851562 2.506172180175781 916.2799072265625 2.506172180175781 C 918.0448608398438 2.506172180175781 919.6339111328125 3.229292154312134 920.734619140625 4.379531860351562 L 923.9452514648438 4.379531860351562 C 922.4949340820312 1.775472044944763 919.6071166992188 2.092590420943452e-06 916.2799072265625 2.092590420943452e-06 C 911.4971313476562 2.092590420943452e-06 907.6198120117188 3.669222116470337 907.6198120117188 8.195012092590332 C 907.6198120117188 12.72080230712891 911.4971313476562 16.39002227783203 916.2799072265625 16.39002227783203 M 916.2799072265625 17.39002227783203 C 910.9533081054688 17.39002227783203 906.6198120117188 13.26516246795654 906.6198120117188 8.195012092590332 C 906.6198120117188 3.124862194061279 910.9533081054688 -0.9999979138374329 916.2799072265625 -0.9999979138374329 C 919.8660278320312 -0.9999979138374329 923.1380004882812 0.874872088432312 924.8189086914062 3.892961978912354 L 925.6468505859375 5.379531860351562 L 920.3074340820312 5.379531860351562 L 920.0121459960938 5.070911884307861 C 919.060546875 4.076502323150635 917.7001953125 3.506172180175781 916.2799072265625 3.506172180175781 C 913.5164794921875 3.506172180175781 911.2682495117188 5.609571933746338 911.2682495117188 8.195012092590332 C 911.2682495117188 10.78045177459717 913.5164794921875 12.88385200500488 916.2799072265625 12.88385200500488 C 917.69970703125 12.88385200500488 919.0601196289062 12.31346225738525 920.0123291015625 11.31893253326416 L 920.3076171875 11.0104923248291 L 925.6468505859375 11.0104923248291 L 924.8189086914062 12.49706172943115 C 923.1380004882812 15.51515197753906 919.8660278320312 17.39002227783203 916.2799072265625 17.39002227783203 Z" stroke="none" fill="#00e0ff"/>
      </g>
      <g id="패스_3" data-name="패스 3" transform="translate(-639.148)" fill="#00e0ff">
        <path d="M 690.6641845703125 16.82126426696777 L 690.1641845703125 16.82126426696777 L 687.5421142578125 16.82126426696777 L 687.0421142578125 16.82126426696777 L 687.0421142578125 16.32126426696777 L 687.0421142578125 3.122123956680298 L 682.1300048828125 3.122123956680298 L 681.6300048828125 3.122123956680298 L 681.6300048828125 2.622123956680298 L 681.6300048828125 4.040832664031768e-06 L 681.6300048828125 -0.4999959468841553 L 682.1300048828125 -0.4999959468841553 L 687.5421142578125 -0.4999959468841553 L 690.1641845703125 -0.4999959468841553 L 695.5762939453125 -0.4999959468841553 L 696.0762939453125 -0.4999959468841553 L 696.0762939453125 4.040832664031768e-06 L 696.0762939453125 2.622123956680298 L 696.0762939453125 3.122123956680298 L 695.5762939453125 3.122123956680298 L 690.6641845703125 3.122123956680298 L 690.6641845703125 16.32126426696777 L 690.6641845703125 16.82126426696777 Z" stroke="none"/>
        <path d="M 690.1641845703125 16.32126426696777 L 690.1641845703125 2.622123956680298 L 695.5762939453125 2.622123956680298 L 695.5762939453125 4.040832664031768e-06 L 682.1300048828125 4.040832664031768e-06 L 682.1300048828125 2.622123956680298 L 687.5421142578125 2.622123956680298 L 687.5421142578125 16.32126426696777 L 690.1641845703125 16.32126426696777 M 691.1641845703125 17.32126426696777 L 686.5421142578125 17.32126426696777 L 686.5421142578125 3.622123956680298 L 681.1300048828125 3.622123956680298 L 681.1300048828125 -0.9999959468841553 L 696.5762939453125 -0.9999959468841553 L 696.5762939453125 3.622123956680298 L 691.1641845703125 3.622123956680298 L 691.1641845703125 17.32126426696777 Z" stroke="none" fill="#00e0ff"/>
      </g>
      <g id="패스_2" data-name="패스 2" transform="translate(-371.305)" fill="#00e0ff">
        <path d="M 405.8534545898438 16.89060401916504 L 394.2799987792969 16.89060401916504 L 393.7799987792969 16.89060401916504 L 393.7799987792969 16.39060401916504 L 393.7799987792969 3.91693129131454e-06 L 393.7799987792969 -0.4999960958957672 L 394.2799987792969 -0.4999960958957672 L 405.8534545898438 -0.4999960958957672 C 408.7496643066406 -0.4999960958957672 411.1059265136719 1.855983972549438 411.1059265136719 4.751873970031738 C 411.1059265136719 6.035366535186768 410.6525268554688 7.24036169052124 409.8194274902344 8.195013999938965 C 410.6525268554688 9.149665832519531 411.1059265136719 10.354660987854 411.1059265136719 11.63815402984619 C 411.1059265136719 14.53436374664307 408.7496643066406 16.89060401916504 405.8534545898438 16.89060401916504 Z M 397.4027099609375 13.26848411560059 L 405.8540649414062 13.26848411560059 C 406.7530212402344 13.26848411560059 407.4844055175781 12.53712368011475 407.4844055175781 11.63815402984619 C 407.4844055175781 10.73918437957764 406.7530212402344 10.0078239440918 405.8540649414062 10.0078239440918 L 397.4027099609375 10.0078239440918 L 397.4027099609375 13.26848411560059 Z M 397.4027099609375 6.382783889770508 L 405.8540649414062 6.382783889770508 C 406.7530212402344 6.382783889770508 407.4844055175781 5.651423931121826 407.4844055175781 4.752453804016113 C 407.4844055175781 3.853483915328979 406.7530212402344 3.122123956680298 405.8540649414062 3.122123956680298 L 397.4027099609375 3.122123956680298 L 397.4027099609375 6.382783889770508 Z" stroke="none"/>
        <path d="M 405.8534545898438 16.39060401916504 C 408.4779357910156 16.39060401916504 410.6059265136719 14.26319408416748 410.6059265136719 11.63815402984619 C 410.6059265136719 10.28280353546143 410.037841796875 9.060894012451172 409.1276550292969 8.195013999938965 C 410.037841796875 7.329133987426758 410.6059265136719 6.107213973999023 410.6059265136719 4.751873970031738 C 410.6059265136719 2.127413988113403 408.4784851074219 3.91693129131454e-06 405.8534545898438 3.91693129131454e-06 L 394.2799987792969 3.91693129131454e-06 L 394.2799987792969 16.39060401916504 L 405.8534545898438 16.39060401916504 M 396.9027099609375 9.507823944091797 L 405.8540649414062 9.507823944091797 C 407.0287780761719 9.507823944091797 407.9844055175781 10.46344375610352 407.9844055175781 11.63815402984619 C 407.9844055175781 12.81286430358887 407.0287780761719 13.76848411560059 405.8540649414062 13.76848411560059 L 396.9027099609375 13.76848411560059 L 396.9027099609375 9.507823944091797 M 396.9027099609375 2.622123956680298 L 405.8540649414062 2.622123956680298 C 407.0287780761719 2.622123956680298 407.9844055175781 3.577744007110596 407.9844055175781 4.752453804016113 C 407.9844055175781 5.927164077758789 407.0287780761719 6.882783889770508 405.8540649414062 6.882783889770508 L 396.9027099609375 6.882783889770508 L 396.9027099609375 2.622123956680298 M 405.8534545898438 17.39060401916504 L 393.2799987792969 17.39060401916504 L 393.2799987792969 -0.9999960660934448 L 405.8534545898438 -0.9999960660934448 C 409.0253601074219 -0.9999960660934448 411.6059265136719 1.580283880233765 411.6059265136719 4.751873970031738 C 411.6059265136719 6.014383792877197 411.2053527832031 7.207619190216064 410.4628295898438 8.195013999938965 C 411.2053527832031 9.182408332824707 411.6059265136719 10.37564373016357 411.6059265136719 11.63815402984619 C 411.6059265136719 14.8100643157959 409.0253601074219 17.39060401916504 405.8534545898438 17.39060401916504 Z M 397.9027099609375 12.76848411560059 L 405.8540649414062 12.76848411560059 C 406.4773254394531 12.76848411560059 406.9844055175781 12.26142406463623 406.9844055175781 11.63815402984619 C 406.9844055175781 11.01488399505615 406.4773254394531 10.5078239440918 405.8540649414062 10.5078239440918 L 397.9027099609375 10.5078239440918 L 397.9027099609375 12.76848411560059 Z M 397.9027099609375 5.882783889770508 L 405.8540649414062 5.882783889770508 C 406.4773254394531 5.882783889770508 406.9844055175781 5.375723838806152 406.9844055175781 4.752453804016113 C 406.9844055175781 4.129183769226074 406.4773254394531 3.622123956680298 405.8540649414062 3.622123956680298 L 397.9027099609375 3.622123956680298 L 397.9027099609375 5.882783889770508 Z" stroke="none" fill="#00e0ff"/>
      </g>
      <g id="그룹_2" data-name="그룹 2">
        <path id="패스_4" data-name="패스 4" d="M128,276.122h2.594v-.45A9.171,9.171,0,0,1,128,274.55Z" transform="translate(-120.541 -258.552)" fill="#00e0ff"/>
        <path id="패스_5" data-name="패스 5" d="M133.89,77.2a4.556,4.556,0,0,0,2.251,3.926V73.27A4.555,4.555,0,0,0,133.89,77.2Z" transform="translate(-126.088 -69.001)" fill="#00e0ff"/>
        <path id="패스_6" data-name="패스 6" d="M7.836,0H0V2.594H4.86A9.432,9.432,0,0,1,7.836,0Z" fill="#00e0ff"/>
        <path id="패스_7" data-name="패스 7" d="M79.585,13.768a5.573,5.573,0,1,1,0-11.146h5.156V0H79.585a8.2,8.2,0,0,0-8.2,8.2h0a8.2,8.2,0,0,0,8.2,8.2h5.156V13.768H79.585Z" transform="translate(-67.23)" fill="#00e0ff"/>
      </g>
    </g>
  </g>
</svg>
