<svg xmlns="http://www.w3.org/2000/svg" xmlns:xlink="http://www.w3.org/1999/xlink" width="163.229" height="19.456" viewBox="0 0 163.229 19.456">
  <defs>
    <clipPath id="clip-path">
      <rect id="사각형_1594" data-name="사각형 1594" width="163.229" height="19.456" fill="#fff"/>
    </clipPath>
  </defs>
  <g id="BTC_Exchange_logo2" transform="translate(-16 -12)">
    <g id="그룹_513" data-name="그룹 513" transform="translate(16 12)" clip-path="url(#clip-path)">
      <path id="패스_845" data-name="패스 845" d="M102.264.646H108c2.839,0,4.573,1.479,4.573,3.883a3.313,3.313,0,0,1-2.07,3.312,3.169,3.169,0,0,1,2.286,3.312c0,2.464-1.715,3.9-4.691,3.9h-5.835Zm2.523,2.228V6.8h3.055a1.888,1.888,0,0,0,2.149-2.011c0-1.242-.788-1.912-2.208-1.912Zm0,6.051v3.9H108c1.419,0,2.208-.69,2.208-1.991,0-1.222-.808-1.912-2.208-1.912Z" transform="translate(-61.705 -0.39)" fill="#fff"/>
      <path id="패스_846" data-name="패스 846" d="M133.163,17.545V9.818h-1.872V7.807h1.872V4.771h2.405V7.807h1.892v2.01h-1.892v7.727Z" transform="translate(-79.219 -2.879)" fill="#fff"/>
      <path id="패스_847" data-name="패스 847" d="M153.8,11.68c2.661,0,4.475,1.478,4.731,3.824h-2.4a2.108,2.108,0,0,0-2.227-1.675c-1.538,0-2.563,1.163-2.563,3s.946,2.976,2.484,2.976a2.16,2.16,0,0,0,2.306-1.656h2.424a4.475,4.475,0,0,1-4.731,3.824c-2.957,0-4.889-2.05-4.889-5.144A4.8,4.8,0,0,1,153.8,11.68" transform="translate(-89.866 -7.047)" fill="#fff"/>
      <path id="패스_848" data-name="패스 848" d="M192.026,15.056V.646h8.949V2.973h-6.426V6.678h5.756V8.906h-5.756V12.73h6.426v2.326Z" transform="translate(-115.866 -0.39)" fill="#fff"/>
      <path id="패스_849" data-name="패스 849" d="M217.97,22.163l3.351-4.77-3.351-4.968h2.8l2.148,3.312,2.07-3.312h2.7l-3.312,4.928,3.213,4.81h-2.76l-2.07-3.213-2.05,3.213Z" transform="translate(-131.521 -7.497)" fill="#fff"/>
      <path id="패스_850" data-name="패스 850" d="M248.436,11.68c2.661,0,4.475,1.478,4.731,3.824h-2.405a2.108,2.108,0,0,0-2.228-1.675c-1.537,0-2.562,1.163-2.562,3s.946,2.976,2.484,2.976a2.16,2.16,0,0,0,2.306-1.656h2.424a4.475,4.475,0,0,1-4.731,3.824c-2.957,0-4.889-2.05-4.889-5.144a4.8,4.8,0,0,1,4.869-5.145" transform="translate(-146.966 -7.047)" fill="#fff"/>
      <path id="패스_851" data-name="패스 851" d="M272.344,14.665V0h2.424v6.19a3.657,3.657,0,0,1,3.154-1.557c2.405,0,3.667,1.518,3.667,4.041v5.992h-2.405V9.244c0-1.636-.808-2.424-2.03-2.424a2.318,2.318,0,0,0-2.4,2.523v5.322Z" transform="translate(-164.329 0.001)" fill="#fff"/>
      <path id="패스_852" data-name="패스 852" d="M300.525,18.934c0-1.794,1.3-2.917,3.607-3.095l2.917-.217v-.217c0-1.321-.788-1.853-2.01-1.853-1.419,0-2.208.591-2.208,1.617h-2.05c0-2.109,1.734-3.489,4.375-3.489,2.622,0,4.238,1.419,4.238,4.12v5.913h-2.109l-.177-1.439a3.432,3.432,0,0,1-3.253,1.7c-2.069,0-3.331-1.2-3.331-3.035m6.544-1.163v-.512l-2.031.158c-1.5.138-2.07.631-2.07,1.419,0,.887.591,1.321,1.676,1.321a2.227,2.227,0,0,0,2.424-2.385" transform="translate(-181.333 -7.047)" fill="#fff"/>
      <path id="패스_853" data-name="패스 853" d="M328.854,21.713V11.975h2.228l.2,1.262a3.591,3.591,0,0,1,3.115-1.557c2.444,0,3.706,1.518,3.706,4.041v5.992h-2.405V16.292c0-1.636-.808-2.424-2.05-2.424a2.329,2.329,0,0,0-2.385,2.6v5.243Z" transform="translate(-198.427 -7.047)" fill="#fff"/>
      <path id="패스_854" data-name="패스 854" d="M361.37,11.63a3.436,3.436,0,0,1,3.174,1.656l.138-1.341h2.227V21.19c0,3.252-1.952,5.283-5.106,5.283-2.8,0-4.711-1.6-5.007-4.2H359.2a2.329,2.329,0,0,0,2.6,2.011,2.52,2.52,0,0,0,2.72-2.661V20.008a3.815,3.815,0,0,1-3.213,1.479c-2.76,0-4.573-2.07-4.573-4.889,0-2.838,1.853-4.967,4.632-4.967m.414,7.766a2.606,2.606,0,0,0,2.681-2.858,2.568,2.568,0,0,0-2.681-2.8,2.6,2.6,0,0,0-2.622,2.8,2.635,2.635,0,0,0,2.622,2.858" transform="translate(-215.252 -7.017)" fill="#fff"/>
      <path id="패스_855" data-name="패스 855" d="M387.206,16.845c0-3.055,1.991-5.165,4.849-5.165,2.917,0,4.77,1.951,4.77,4.987V17.4l-7.333.02A2.5,2.5,0,0,0,392.173,20c1.321,0,2.188-.512,2.464-1.439h2.227c-.414,2.129-2.188,3.41-4.731,3.41a4.815,4.815,0,0,1-4.928-5.125m2.346-.966h4.889a2.16,2.16,0,0,0-2.365-2.227,2.364,2.364,0,0,0-2.523,2.227" transform="translate(-233.636 -7.047)" fill="#fff"/>
      <path id="패스_856" data-name="패스 856" d="M26.88,1.936h-.017A8.947,8.947,0,0,0,19.6,5.668q-.143.2-.275.4a16.2,16.2,0,0,1-1.812,2.157A16.121,16.121,0,0,1,10.988,12.2l.228,2.061L4.494,10.8,9.93,5.109l.42,2.46a11.517,11.517,0,0,0,3.935-2.585q.357-.357.678-.739a8.949,8.949,0,0,0-11.7-.262q-.166.137-.325.282-.318.289-.608.608-.145.159-.282.325-.205.249-.393.512-.125.176-.242.358c-.056.087-.11.175-.163.264a8.926,8.926,0,0,0-.434.828Q.749,7.3.688,7.446A8.907,8.907,0,0,0,.309,8.558Q.248,8.785.2,9.017.144,9.273.1,9.535A9.058,9.058,0,0,0,0,10.9a8.929,8.929,0,0,0,2.046,5.7q.137.166.282.325.289.318.608.608.159.145.325.282a8.96,8.96,0,0,0,12.929-1.621q.2-.268.373-.55A16.184,16.184,0,0,1,24.841,9.6l-.228-2.061L31.335,11,25.9,16.691l-.42-2.46a11.511,11.511,0,0,0-3.935,2.585q-.352.352-.669.729a8.926,8.926,0,0,0,5.988,2.31h.017a8.96,8.96,0,0,0,0-17.92" transform="translate(0 -1.168)" fill="#fff"/>
    </g>
  </g>
</svg>
