<?xml version="1.0" encoding="utf-8"?>
<!-- Generator: Adobe Illustrator 26.3.1, SVG Export Plug-In . SVG Version: 6.00 Build 0)  -->
<svg version="1.1" id="레이어_1" xmlns="http://www.w3.org/2000/svg" xmlns:xlink="http://www.w3.org/1999/xlink" x="0px"
	 y="0px" viewBox="0 0 700 700" style="enable-background:new 0 0 700 700;" xml:space="preserve">
<style type="text/css">
	.st0{fill:#F34840;}
</style>
<path class="st0" d="M350,659.4c82,0,160.7-32.6,218.8-90.6c58-58,90.6-136.7,90.6-218.8s-32.6-160.7-90.6-218.8
	c-58-58-136.7-90.6-218.8-90.6s-160.7,32.6-218.8,90.6c-58,58-90.6,136.7-90.6,218.8s32.6,160.7,90.6,218.8
	C189.3,626.8,268,659.4,350,659.4z M217.5,257.5c-7.1-7.1-9.9-17.5-7.3-27.3c2.6-9.7,10.2-17.4,20-20c9.7-2.6,20.1,0.2,27.3,7.3
	l92.5,92.8l92.5-92.5v0c7.2-6.2,17.1-8.3,26.3-5.6c9.1,2.7,16.3,9.9,19,19c2.7,9.1,0.6,19-5.6,26.3L389.7,350l92.5,92.5h0
	c6,5.1,9.5,12.4,9.8,20.3s-2.7,15.4-8.2,21c-5.5,5.5-13.1,8.5-21,8.2c-7.8-0.3-15.2-3.9-20.3-9.8L350,389.7l-92.5,92.8
	c-7.2,6.2-17.1,8.3-26.3,5.6c-9.1-2.7-16.3-9.8-19-19c-2.7-9.1-0.6-19,5.6-26.3l92.5-92.8L217.5,257.5z"/>
</svg>
