<svg xmlns="http://www.w3.org/2000/svg" width="286.5" height="134" viewBox="0 0 286.5 134">
  <g id="card4" transform="translate(-1274 -622)">
    <rect id="사각형_1209" data-name="사각형 1209" width="286.5" height="134" rx="10" transform="translate(1274 622)"/>
    <g id="사각형_1475" data-name="사각형 1475" transform="translate(1274 622)" fill="none" stroke="#fff" stroke-width="1" opacity="0.5">
      <rect width="286.5" height="134" rx="10" stroke="none"/>
      <rect x="0.5" y="0.5" width="285.5" height="133" rx="9.5" fill="none"/>
    </g>
    <text id="TRADE_TO_SHARE" data-name="TRADE TO SHARE" transform="translate(1294 658)" fill="#fff" font-size="14" font-family="Noto Sans KR" font-weight="700"><tspan x="0" y="0">TRADE TO SHARE</tspan></text>
    <text id="_30_000_WORTH_OF" data-name="$30,000 WORTH OF" transform="translate(1294 678)" fill="#1fe2eb" font-size="14" font-family="Noto Sans KR" font-weight="700"><tspan x="0" y="0">$30,000</tspan><tspan y="0" xml:space="preserve" fill="#fff"> WORTH OF</tspan></text>
    <text id="CBK_AGLD_AND_NC_" data-name="CBK, AGLD AND NC!" transform="translate(1294 698)" fill="#1fe2eb" font-size="14" font-family="Noto Sans KR" font-weight="700"><tspan x="0" y="0">CBK, AGLD</tspan><tspan y="0" xml:space="preserve" fill="#fff"> AND </tspan><tspan y="0">NC</tspan><tspan y="0" fill="#fff">!</tspan></text>
    <text id="_100_guaranteed_bonus_" data-name="100% guaranteed bonus!" transform="translate(1294 733)" fill="#fff" font-size="9" font-family="Noto Sans KR"><tspan x="0" y="0">100% guaranteed bonus!</tspan></text>
    <g id="그룹_422" data-name="그룹 422" transform="translate(1471.605 671.988)">
      <g id="그룹_423" data-name="그룹 423" transform="translate(0 0.012)">
        <path id="패스_702" data-name="패스 702" d="M205.474,129.517a.7.7,0,0,1-.628-.393,17.009,17.009,0,0,0-5.424-6.4.7.7,0,1,1,.809-1.137,18.409,18.409,0,0,1,5.87,6.93.7.7,0,0,1-.627,1Z" transform="translate(-171.334 -104.504)" fill="#fff"/>
        <path id="패스_703" data-name="패스 703" d="M18.3,136.291A18.3,18.3,0,0,1,15.225,99.95a.7.7,0,0,1,.233,1.376,16.905,16.905,0,1,0,18.053,24.046.7.7,0,0,1,1.255.61A18.183,18.183,0,0,1,18.3,136.291Z" transform="translate(0 -85.992)" fill="#fff"/>
        <path id="패스_704" data-name="패스 704" d="M149.531,366.4a15.553,15.553,0,0,1-14.266-9.479q-.248-.611-.438-1.236a.7.7,0,0,1,1.335-.407q.172.565.4,1.118a14.119,14.119,0,0,0,14.509,8.52,14.346,14.346,0,0,0,4.276-1.176,14.985,14.985,0,0,0,1.923-1.047q.435-.28.85-.589c.377-.342.636-.575,1-.557a1.042,1.042,0,0,1,.77.548l1.6,1.9,2.157-11.129L152.3,353.1l1.993,2.368a.7.7,0,0,1-.285,1.1,8.68,8.68,0,0,1-12.958-1.92.7.7,0,1,1,1.177-.751,7.284,7.284,0,0,0,10.518,1.9l-2.453-2.915a.7.7,0,0,1,.52-1.147l13.659-.273a.7.7,0,0,1,.7.831l-2.6,13.412a.7.7,0,0,1-1.219.316l-2.37-2.816-.031.026q-.452.337-.928.644a16.385,16.385,0,0,1-2.1,1.145,15.74,15.74,0,0,1-4.691,1.291A14.77,14.77,0,0,1,149.531,366.4Z" transform="translate(-115.981 -302.403)" fill="#1fe2eb"/>
        <path id="패스_705" data-name="패스 705" d="M248.246,134.638a.7.7,0,0,1-.084-1.391,16.9,16.9,0,1,0-12.035-3.126.7.7,0,1,1-.824,1.127,18.3,18.3,0,1,1,13.028,3.385A.7.7,0,0,1,248.246,134.638Z" transform="translate(-196.001 -84.468)" fill="#fff"/>
        <path id="패스_706" data-name="패스 706" d="M131.33,14.957a.7.7,0,0,1-.685-.831L133.235.765A.736.736,0,0,1,133.749.2a.694.694,0,0,1,.714.2l2.371,2.816.031-.026q.452-.337.928-.644A16.374,16.374,0,0,1,139.9,1.4,15.743,15.743,0,0,1,144.588.11,15.538,15.538,0,0,1,160.55,9.491q.159.392.295.791.091.267.171.535a.7.7,0,1,1-1.338.4q-.072-.243-.154-.484-.123-.36-.267-.715A14.12,14.12,0,0,0,144.748,1.5a14.349,14.349,0,0,0-4.276,1.176,14.974,14.974,0,0,0-1.923,1.047q-.435.28-.85.589c-.378.342-.637.575-1,.558a1.041,1.041,0,0,1-.769-.547l-.7-.831-.9-1.072-2.157,11.129,11.334-.227L141.52,10.95a.7.7,0,0,1,.286-1.1,8.679,8.679,0,0,1,13.152,2.239.7.7,0,1,1-1.208.7,7.284,7.284,0,0,0-10.681-2.164l2.418,2.872a.739.739,0,0,1,.119.759.694.694,0,0,1-.6.431l-13.659.273Z" transform="translate(-112.398 -0.012)" fill="#1fe2eb"/>
        <g id="그룹_424" data-name="그룹 424">
          <path id="패스_707" data-name="패스 707" d="M320.079,180.874a6.217,6.217,0,0,1-5.668-3.129.7.7,0,1,1,1.251-.619,4.89,4.89,0,0,0,4.417,2.352c2.6,0,4.723-1.632,4.723-3.639,0-2.545-1.764-3.264-4.81-3.644-4-.5-6.033-2.193-6.033-5.03,0-2.776,2.745-5.035,6.119-5.035a6.3,6.3,0,0,1,5.589,2.978.7.7,0,0,1-1.227.665,4.9,4.9,0,0,0-4.362-2.247c-2.6,0-4.723,1.633-4.723,3.639,0,1.306.5,3.105,4.81,3.645,2.108.263,6.033.754,6.033,5.029C326.2,178.615,323.453,180.874,320.079,180.874Z" transform="translate(-270.137 -139.502)" fill="#1fe2eb"/>
          <path id="선_43" data-name="선 43" d="M-4.3,18.8a.7.7,0,0,1-.7-.7V-4.3A.7.7,0,0,1-4.3-5a.7.7,0,0,1,.7.7V18.106A.7.7,0,0,1-4.3,18.8Z" transform="translate(54.244 25.099)" fill="#1fe2eb"/>
        </g>
        <path id="패스_708" data-name="패스 708" d="M64.41,152.743a1.811,1.811,0,0,1,1.635,1.016l2.241,4.54a.427.427,0,0,0,.322.234l5.01.728a1.823,1.823,0,0,1,1.01,3.109L71,165.9a.427.427,0,0,0-.123.378l.856,4.99a1.82,1.82,0,0,1-2.645,1.921l-4.481-2.356a.434.434,0,0,0-.4,0l-4.481,2.356a1.806,1.806,0,0,1-.848.212,1.825,1.825,0,0,1-1.8-2.133l.856-4.99a.427.427,0,0,0-.123-.378l-3.625-3.534a1.823,1.823,0,0,1,1.01-3.109l5.01-.728a.427.427,0,0,0,.321-.234l2.241-4.54A1.811,1.811,0,0,1,64.41,152.743Zm5.528,19.265a.44.44,0,0,0,.331-.158.409.409,0,0,0,.09-.343l-.856-4.99a1.822,1.822,0,0,1,.524-1.613l3.625-3.534a.427.427,0,0,0-.237-.728l-5.01-.728a1.822,1.822,0,0,1-1.373-1l-2.24-4.54a.427.427,0,0,0-.766,0l-2.241,4.54a1.823,1.823,0,0,1-1.372,1l-5.01.728a.427.427,0,0,0-.237.728l3.625,3.534a1.822,1.822,0,0,1,.524,1.613l-.856,4.99a.409.409,0,0,0,.09.343.427.427,0,0,0,.529.107l4.481-2.356a1.854,1.854,0,0,1,1.7,0l4.481,2.356A.425.425,0,0,0,69.938,172.009Z" transform="translate(-46.154 -131.425)" fill="#1fe2eb"/>
      </g>
    </g>
  </g>
</svg>
