<svg xmlns="http://www.w3.org/2000/svg" width="286.5" height="134" viewBox="0 0 286.5 134">
  <g id="card3" transform="translate(-969 -622)">
    <rect id="사각형_1210" data-name="사각형 1210" width="286.5" height="134" rx="10" transform="translate(969 622)"/>
    <g id="사각형_1474" data-name="사각형 1474" transform="translate(969 622)" fill="none" stroke="#fff" stroke-width="1" opacity="0.5">
      <rect width="286.5" height="134" rx="10" stroke="none"/>
      <rect x="0.5" y="0.5" width="285.5" height="133" rx="9.5" fill="none"/>
    </g>
    <text id="JOIN_TO_WIN" data-name="JOIN TO WIN" transform="translate(992 658)" fill="#fff" font-size="14" font-family="Noto Sans KR" font-weight="700"><tspan x="0" y="0">JOIN TO WIN</tspan></text>
    <text id="UP_TO_2_000J_" data-name="UP TO 2,000J!" transform="translate(992 678)" fill="#fff" font-size="14" font-family="Noto Sans KR" font-weight="700"><tspan x="0" y="0">UP TO </tspan><tspan y="0" fill="#1fe2eb">2,000J</tspan><tspan y="0">!</tspan></text>
    <text id="_100_guaranteed_bonus_" data-name="100% guaranteed bonus!" transform="translate(992 697)" fill="#1fe2eb" font-size="9" font-family="Noto Sans KR"><tspan x="0" y="0">100% </tspan><tspan y="0" fill="#fff">guaranteed bonus!</tspan></text>
    <text id="Initial_listing_-_Jambo_J_" data-name="Initial listing - Jambo (J)" transform="translate(992 733)" fill="#fff" font-size="9" font-family="Noto Sans KR"><tspan x="0" y="0">Initial listing - Jambo (J)</tspan></text>
    <g id="그룹_420" data-name="그룹 420">
      <g id="그룹_418" data-name="그룹 418" transform="translate(1177.25 672)">
        <g id="그룹_419" data-name="그룹 419" transform="translate(0)">
          <path id="패스_702" data-name="패스 702" d="M247.8,64.548a.653.653,0,0,1-.482-1.094,4.086,4.086,0,0,0,1.154-4.29,3.182,3.182,0,0,0-2.813-1.952c-2.7-.158-5.445,2.354-6.971,4.553a.653.653,0,1,1-1.073-.745c1.8-2.6,4.881-5.3,8.12-5.112a4.477,4.477,0,0,1,3.947,2.765c.739,1.818.228,3.883-1.4,5.663A.651.651,0,0,1,247.8,64.548Z" transform="translate(-206.474 -48.598)" fill="#1fe2eb"/>
          <path id="패스_703" data-name="패스 703" d="M114.768,64.548a.651.651,0,0,1-.482-.212c-1.628-1.781-2.139-3.845-1.4-5.663a4.477,4.477,0,0,1,3.947-2.765c3.244-.189,6.325,2.522,8.127,5.122a.653.653,0,1,1-1.074.744c-1.527-2.2-4.27-4.72-6.977-4.562a3.182,3.182,0,0,0-2.813,1.952,4.086,4.086,0,0,0,1.154,4.29.653.653,0,0,1-.482,1.094Z" transform="translate(-97.854 -48.598)" fill="#1fe2eb"/>
          <path id="사각형_1301" data-name="사각형 1301" d="M-3.422-5H16.649a1.58,1.58,0,0,1,1.578,1.578V-.358A1.58,1.58,0,0,1,16.649,1.22H-3.422A1.58,1.58,0,0,1-5-.358V-3.422A1.58,1.58,0,0,1-3.422-5ZM16.649-.086a.273.273,0,0,0,.272-.272V-3.422a.273.273,0,0,0-.272-.272H-3.422a.273.273,0,0,0-.272.272V-.358a.273.273,0,0,0,.272.272Z" transform="translate(11.477 54.164)" fill="#1fe2eb"/>
          <path id="선_43" data-name="선 43" d="M52.592-3.694H-4.347A.653.653,0,0,1-5-4.347.653.653,0,0,1-4.347-5H52.592a.653.653,0,0,1,.653.653A.653.653,0,0,1,52.592-3.694Z" transform="translate(5 40.709)" fill="#1fe2eb"/>
          <path id="선_44" data-name="선 44" d="M52.592-3.694H-4.347A.653.653,0,0,1-5-4.347.653.653,0,0,1-4.347-5H52.592a.653.653,0,0,1,.653.653A.653.653,0,0,1,52.592-3.694Z" transform="translate(5 47.691)" fill="#1fe2eb"/>
          <path id="패스_704" data-name="패스 704" d="M138.509,172.16H113.143a1.914,1.914,0,0,1-1.912-1.912V160.92a.653.653,0,0,1,1.306,0v9.328a.606.606,0,0,0,.606.606h25.366a.606.606,0,0,0,.606-.606V160.92a.653.653,0,1,1,1.306,0v9.328A1.914,1.914,0,0,1,138.509,172.16Z" transform="translate(-96.703 -139.334)" fill="#fff"/>
          <path id="패스_705" data-name="패스 705" d="M126.126,119.716H94.906a1.286,1.286,0,0,1-1.285-1.285v-5.025a1.286,1.286,0,0,1,1.285-1.285h31.22a1.286,1.286,0,0,1,1.285,1.285v5.025A1.286,1.286,0,0,1,126.126,119.716Zm-.021-6.31-31.2.021.021,5,13.265-.021H126.1Z" transform="translate(-81.393 -97.477)" fill="#fff"/>
          <path id="패스_706" data-name="패스 706" d="M203.07,85.31a.653.653,0,0,1-.653-.653V83.182a2.1,2.1,0,0,0-4.194,0v1.475a.653.653,0,1,1-1.306,0V83.182a3.4,3.4,0,0,1,6.806,0v1.475A.653.653,0,0,1,203.07,85.31Z" transform="translate(-171.197 -69.359)" fill="#fff"/>
          <path id="패스_707" data-name="패스 707" d="M52.677,242.535H5.569A5.575,5.575,0,0,1,0,236.966v-26.04a5.575,5.575,0,0,1,5.569-5.569h5.55a.653.653,0,1,1,0,1.306H5.569a4.267,4.267,0,0,0-4.263,4.263v26.04a4.267,4.267,0,0,0,4.263,4.263H52.677a4.268,4.268,0,0,0,4.263-4.263v-26.04a4.267,4.267,0,0,0-4.263-4.263H47.345a.653.653,0,1,1,0-1.306h5.332a5.575,5.575,0,0,1,5.569,5.569v26.04A5.575,5.575,0,0,1,52.677,242.535Z" transform="translate(0 -178.535)" fill="#fff"/>
          <path id="선_45" data-name="선 45" d="M10.457-3.694h-14.8A.653.653,0,0,1-5-4.347.653.653,0,0,1-4.347-5h14.8a.653.653,0,0,1,.653.653A.653.653,0,0,1,10.457-3.694Z" transform="translate(40.658 54.164)" fill="#fff"/>
          <path id="선_46" data-name="선 46" d="M1.2-3.694H-4.347A.653.653,0,0,1-5-4.347.653.653,0,0,1-4.347-5H1.2a.653.653,0,0,1,.653.653A.653.653,0,0,1,1.2-3.694Z" transform="translate(40.658 59.079)" fill="#fff"/>
          <path id="선_47" data-name="선 47" d="M-4.347-2.918a.651.651,0,0,1-.462-.191.653.653,0,0,1,0-.924l.776-.776a.653.653,0,0,1,.924,0,.653.653,0,0,1,0,.924l-.776.776A.651.651,0,0,1-4.347-2.918Z" transform="translate(53.537 13.39)" fill="#fff"/>
          <path id="선_48" data-name="선 48" d="M-4.347-2.918a.651.651,0,0,1-.462-.191.653.653,0,0,1,0-.924l.776-.776a.653.653,0,0,1,.924,0,.653.653,0,0,1,0,.924l-.776.776A.651.651,0,0,1-4.347-2.918Z" transform="translate(57.725 9.202)" fill="#fff"/>
          <path id="선_49" data-name="선 49" d="M-3.571-2.918a.651.651,0,0,1-.462-.191l-.776-.776a.653.653,0,0,1,0-.924.653.653,0,0,1,.924,0l.776.776a.653.653,0,0,1,0,.924A.651.651,0,0,1-3.571-2.918Z" transform="translate(57.725 13.39)" fill="#fff"/>
          <path id="선_50" data-name="선 50" d="M-3.571-2.918a.651.651,0,0,1-.462-.191l-.776-.776a.653.653,0,0,1,0-.924.653.653,0,0,1,.924,0l.776.776a.653.653,0,0,1,0,.924A.651.651,0,0,1-3.571-2.918Z" transform="translate(53.537 9.202)" fill="#fff"/>
          <path id="선_51" data-name="선 51" d="M-4.347-2.915a.651.651,0,0,1-.462-.191.653.653,0,0,1,0-.924l.779-.779a.653.653,0,0,1,.924,0,.653.653,0,0,1,0,.924l-.779.779A.651.651,0,0,1-4.347-2.915Z" transform="translate(15.952 5)" fill="#fff"/>
          <path id="선_52" data-name="선 52" d="M-4.347-2.915a.651.651,0,0,1-.462-.191.653.653,0,0,1,0-.924l.779-.779a.653.653,0,0,1,.924,0,.653.653,0,0,1,0,.924l-.779.779A.651.651,0,0,1-4.347-2.915Z" transform="translate(11.75 9.202)" fill="#fff"/>
          <path id="선_53" data-name="선 53" d="M-3.568-2.915a.651.651,0,0,1-.462-.191l-.779-.779a.653.653,0,0,1,0-.924.653.653,0,0,1,.924,0l.779.779a.653.653,0,0,1,0,.924A.651.651,0,0,1-3.568-2.915Z" transform="translate(11.75 5)" fill="#fff"/>
          <path id="선_54" data-name="선 54" d="M-3.568-2.915a.651.651,0,0,1-.462-.191l-.779-.779a.653.653,0,0,1,0-.924.653.653,0,0,1,.924,0l.779.779a.653.653,0,0,1,0,.924A.651.651,0,0,1-3.568-2.915Z" transform="translate(15.952 9.202)" fill="#fff"/>
          <path id="선_55" data-name="선 55" d="M-4.093-3.44a.651.651,0,0,1-.462-.191l-.254-.254a.653.653,0,0,1,0-.924.653.653,0,0,1,.924,0l.254.254a.653.653,0,0,1,0,.924A.651.651,0,0,1-4.093-3.44Z" transform="translate(11.594 26.226)" fill="#1fe2eb"/>
          <path id="선_56" data-name="선 56" d="M-4.093-3.44a.651.651,0,0,1-.462-.191l-.254-.254a.653.653,0,0,1,0-.924.653.653,0,0,1,.924,0l.254.254a.653.653,0,0,1,0,.924A.651.651,0,0,1-4.093-3.44Z" transform="translate(7.968 22.6)" fill="#1fe2eb"/>
          <path id="선_57" data-name="선 57" d="M-4.347-3.44a.651.651,0,0,1-.462-.191.653.653,0,0,1,0-.924l.254-.254a.653.653,0,0,1,.924,0,.653.653,0,0,1,0,.924l-.254.254A.651.651,0,0,1-4.347-3.44Z" transform="translate(11.594 22.6)" fill="#1fe2eb"/>
          <path id="선_58" data-name="선 58" d="M-4.347-3.44a.651.651,0,0,1-.462-.191.653.653,0,0,1,0-.924l.254-.254a.653.653,0,0,1,.924,0,.653.653,0,0,1,0,.924l-.254.254A.651.651,0,0,1-4.347-3.44Z" transform="translate(7.968 26.226)" fill="#1fe2eb"/>
        </g>
      </g>
      <rect id="사각형_1301-2" data-name="사각형 1301" width="21" height="5" transform="translate(1185 722)" fill="#1fe2eb"/>
    </g>
  </g>
</svg>
