<svg xmlns="http://www.w3.org/2000/svg" width="286.5" height="134" viewBox="0 0 286.5 134">
  <g id="card2" transform="translate(-665 -622)">
    <rect id="사각형_1208" data-name="사각형 1208" width="286.5" height="134" rx="10" transform="translate(665 622)"/>
    <g id="사각형_1473" data-name="사각형 1473" transform="translate(665 622)" fill="none" stroke="#fff" stroke-width="1" opacity="0.5">
      <rect width="286.5" height="134" rx="10" stroke="none"/>
      <rect x="0.5" y="0.5" width="285.5" height="133" rx="9.5" fill="none"/>
    </g>
    <text id="JOIN_TO_SHARE" data-name="JOIN TO SHARE" transform="translate(685 658)" fill="#fff" font-size="14" font-family="Noto Sans KR" font-weight="700"><tspan x="0" y="0">JOIN TO SHARE</tspan></text>
    <text id="_3_600_00_DUCK_AND" data-name="3,600,00 DUCK AND" transform="translate(685 678)" fill="#1fe2eb" font-size="14" font-family="Noto Sans KR" font-weight="700"><tspan x="0" y="0">3,600,00 DUCK</tspan><tspan y="0" xml:space="preserve" fill="#fff"> AND</tspan></text>
    <text id="_4_480_000_GPS_" data-name="4,480,000 GPS!" transform="translate(685 698)" fill="#1fe2eb" font-size="14" font-family="Noto Sans KR" font-weight="700"><tspan x="0" y="0">4,480,000 GPS</tspan><tspan y="0" fill="#fff">!</tspan></text>
    <text id="Initial_listing_-_DuckChain" data-name="Initial listing - DuckChain" transform="translate(685 720)" fill="#fff" font-size="9" font-family="Noto Sans KR"><tspan x="0" y="0">Initial listing - DuckChain</tspan></text>
    <text id="_DUCK_GoPlus_GPS_" data-name="(DUCK) &amp; GoPlus (GPS)" transform="translate(685 733)" fill="#fff" font-size="9" font-family="Noto Sans KR"><tspan x="0" y="0">(DUCK) &amp; GoPlus (GPS)</tspan></text>
    <g id="그룹_415" data-name="그룹 415" transform="translate(883.24 672)">
      <g id="그룹_416" data-name="그룹 416">
        <path id="패스_697" data-name="패스 697" d="M239.8,7.149a.492.492,0,0,1-.491-.491L239.3.492a.491.491,0,1,1,.982,0l.011,6.166a.491.491,0,0,1-.49.492Z" transform="translate(-215.793)" fill="#fff"/>
        <path id="패스_698" data-name="패스 698" d="M349.2,17.137a.491.491,0,0,1-.389-.789L353.2,10.6a.491.491,0,1,1,.78.6l-4.39,5.745a.488.488,0,0,1-.391.193" transform="translate(-314.454 -9.387)" fill="#fff"/>
        <path id="패스_699" data-name="패스 699" d="M108.935,17.137a.488.488,0,0,1-.391-.193l-4.39-5.745a.491.491,0,0,1,.78-.6l4.39,5.746a.491.491,0,0,1-.389.789" transform="translate(-93.831 -9.387)" fill="#fff"/>
        <path id="패스_700" data-name="패스 700" d="M22.508,125.622a2.837,2.837,0,0,0-1.868.7v-1a2.848,2.848,0,0,0-4.718-2.15v-1.782a2.85,2.85,0,0,0-5.7,0v1.782a2.848,2.848,0,0,0-4.718,2.15v8.293A3.241,3.241,0,0,0,0,135.942V149.7a10.328,10.328,0,0,0,5.259,9.085l.246.142v10.821a.491.491,0,0,0,.982,0V158.63a.491.491,0,0,0-.267-.438A9.28,9.28,0,0,1,.982,149.7V135.942a2.261,2.261,0,0,1,4.522,0v7.47A.492.492,0,0,0,6,143.9a6.593,6.593,0,0,1,6.586,6.585.491.491,0,0,0,.982,0,7.573,7.573,0,0,0-6.645-7.512l-.432-.053v-17.6a1.868,1.868,0,1,1,3.735,0v11.008a.491.491,0,0,0,.982,0v-14.94a1.868,1.868,0,0,1,3.736,0v14.94a.491.491,0,0,0,.982,0V125.327a1.868,1.868,0,1,1,3.735,0v11.008a.491.491,0,0,0,.982,0v-7.863a1.868,1.868,0,1,1,3.735,0V133a.491.491,0,0,0,.982,0v-4.53a2.853,2.853,0,0,0-2.85-2.85" transform="translate(0 -106.899)" fill="#1fe2eb"/>
        <path id="패스_701" data-name="패스 701" d="M207.706,272.074a.492.492,0,0,1-.491-.491v-3.858a.487.487,0,0,1,.123-.325l.349-.394a.458.458,0,0,1,.066-.062,10.3,10.3,0,0,0,2.288-2.864c.219-.351.446-.715.681-1.063l.009-.013,7.746-13.238a1.767,1.767,0,0,0-.785-2.358,2.056,2.056,0,0,0-1.034-.286,1.592,1.592,0,0,0-1.406.757l-2.971,5.076a.5.5,0,0,1-.427.242.5.5,0,0,1-.13-.017.491.491,0,0,1-.359-.475l.068-16.524c0-.741-1.153-1.523-2.244-1.523a2.469,2.469,0,0,0-2.173,1.2l-.036.089V248.24a.492.492,0,0,1-.491.491.52.52,0,0,1-.521-.491V236.184a1.742,1.742,0,0,1,.023-.284l.007-.04v-2.707c0-.788-.851-1.429-1.9-1.429s-1.9.641-1.9,1.429V248.24a.5.5,0,0,1-.031.173.541.541,0,0,1-.487.347.436.436,0,0,1-.073-.006.474.474,0,0,1-.413-.452l-.043-12.627c0-.777-1.225-1.7-2.259-1.7s-1.9.642-1.9,1.431v6.721l.073,6.107a.491.491,0,0,1-.491.5.56.56,0,0,1-.564-.491l-.033-8.892a2.412,2.412,0,0,0-2.136-1.976,2.508,2.508,0,0,0-2.243,1.939l.031,20.784a8.931,8.931,0,0,0,2.658,6.539.545.545,0,0,1,.056.064l.2.275a.5.5,0,0,1,.1.291v4.32a.491.491,0,1,1-.982,0v-4.189l-.145-.144a9.915,9.915,0,0,1-2.866-7.156l-.031-20.781a3.443,3.443,0,0,1,3.225-2.923,2.867,2.867,0,0,1,1.431.407l.738.429v-1.819a2.681,2.681,0,0,1,2.88-2.413,3.411,3.411,0,0,1,1.606.426l.673.363.051-.763a2.71,2.71,0,0,1,2.874-2.277,2.679,2.679,0,0,1,2.879,2.411v1.179l.694-.315a3.709,3.709,0,0,1,1.515-.341c1.492,0,3.226,1.1,3.226,2.508l-.06,14.7,2.048-3.5a2.572,2.572,0,0,1,2.263-1.24,3.014,3.014,0,0,1,1.519.418,2.748,2.748,0,0,1,1.138,3.7l-7.765,13.267c-.249.371-.457.7-.659,1.027l-.027.043a11.393,11.393,0,0,1-2.45,3.066l-.034.027-.194.22v3.67a.492.492,0,0,1-.491.491" transform="translate(-171.898 -208.074)" fill="#fff"/>
      </g>
    </g>
  </g>
</svg>
