<svg xmlns="http://www.w3.org/2000/svg" width="286.5" height="134" viewBox="0 0 286.5 134">
  <g id="card1" transform="translate(-360 -622)">
    <rect id="사각형_1472" data-name="사각형 1472" width="286.5" height="134" rx="10" transform="translate(360 622)"/>
    <g id="사각형_1207" data-name="사각형 1207" transform="translate(360 622)" fill="none" stroke="#fff" stroke-width="1" opacity="0.5">
      <rect width="286.5" height="134" rx="10" stroke="none"/>
      <rect x="0.5" y="0.5" width="285.5" height="133" rx="9.5" fill="none"/>
    </g>
    <text id="DEPOSIT_TO_ENJOY" data-name="DEPOSIT TO ENJOY" transform="translate(380 658)" fill="#fff" font-size="14" font-family="Noto Sans KR" font-weight="700"><tspan x="0" y="0">DEPOSIT TO ENJOY</tspan></text>
    <text id="UP_TO_50_APR" data-name="UP TO 50% APR" transform="translate(380 678)" fill="#fff" font-size="14" font-family="Noto Sans KR" font-weight="700"><tspan x="0" y="0">UP TO </tspan><tspan y="0" fill="#1fe2eb">50%</tspan><tspan y="0" xml:space="preserve"> APR</tspan></text>
    <text id="Promotion_pool_:" data-name="Promotion pool :" transform="translate(380 702)" fill="#fff" font-size="9" font-family="Noto Sans KR"><tspan x="0" y="0">Promotion pool :</tspan></text>
    <text id="Deposit_Promotion" data-name="Deposit Promotion" transform="translate(377 733)" fill="#fff" font-size="9" font-family="Noto Sans KR"><tspan x="0" y="0">Deposit Promotion</tspan></text>
    <text id="_200_00" data-name="$200,00" transform="translate(455 702)" fill="#1fe2eb" font-size="9" font-family="Noto Sans KR"><tspan x="0" y="0">$200,00</tspan></text>
    <g id="그룹_409" data-name="그룹 409" transform="translate(549.542 668)">
      <g id="그룹_410" data-name="그룹 410">
        <path id="패스_685" data-name="패스 685" d="M83.75,34a34,34,0,1,0-34,34,34,34,0,0,0,34-34" transform="translate(-10.99)" fill="#f2f2f7" opacity="0.2"/>
        <path id="패스_686" data-name="패스 686" d="M140.424,100.2a17.93,17.93,0,0,1,7.329-3.551,18.374,18.374,0,0,1,4-.453,17.667,17.667,0,0,1,5.818.967A18.062,18.062,0,1,1,133.7,114.258a17.66,17.66,0,0,1,1.118-6.2,13.616,13.616,0,0,0,2.947,1.632c.166.106,8.447,2.765,8.613,2.8a2.491,2.491,0,0,0,3.022-1.209,6.159,6.159,0,0,0,.332-5.032,6.468,6.468,0,0,0-3.551-3.642c-1.874-.786-4.14-1.708-5.757-2.4" transform="translate(-93.293 -67.126)" fill="#1fe2eb"/>
        <path id="패스_687" data-name="패스 687" d="M56.728,35.982l-4.2-7.027L39.381,25.676l7.888,12.965c.2.076,1.012.438,2.131.892,1.617.7,3.884,1.617,5.757,2.4a6.468,6.468,0,0,1,3.551,3.642,6.159,6.159,0,0,1-.332,5.032,2.491,2.491,0,0,1-3.022,1.209c-.166-.03-8.447-2.69-8.613-2.8a13.616,13.616,0,0,1-2.947-1.632c-.892-.6-1.708-1.284-2.629-1.98A22.881,22.881,0,0,0,27.1,40.621a11.858,11.858,0,0,1-7.616-2.735l-8.356-7.722A4.472,4.472,0,0,0,8.04,28.955H3.25V9.25H45.47a4.572,4.572,0,0,1,3.173,1.284l14.22,13.887a4.492,4.492,0,0,1,1.224,2.161l2.463,9.9V36.5a17.667,17.667,0,0,0-5.818-.967,18.374,18.374,0,0,0-4,.453" transform="translate(-2.268 -6.454)"/>
        <path id="패스_688" data-name="패스 688" d="M54.77,89.08a3.233,3.233,0,0,1-.983-.153c-.1-.028-.393-.117-1.4-.439-.825-.263-1.888-.6-2.917-.936-.81-.262-1.974-.639-2.918-.95-1.035-.341-1.33-.446-1.446-.5a14.176,14.176,0,0,1-3.049-1.69c-.608-.413-1.168-.849-1.761-1.31-.286-.223-.583-.453-.886-.682l-.009-.007a22.281,22.281,0,0,0-13.7-4.662,12.478,12.478,0,0,1-8-2.876l-.022-.02L9.317,67.136l-.005,0a3.86,3.86,0,0,0-2.667-1.044H1.854a.6.6,0,1,1,0-1.209h4.79a5.064,5.064,0,0,1,3.5,1.372l8.343,7.709A11.268,11.268,0,0,0,25.7,76.545,23.5,23.5,0,0,1,40.137,81.46c.31.233.608.466.9.69.579.451,1.126.876,1.7,1.268l.013.009a12.978,12.978,0,0,0,2.816,1.561l.044.019c.551.222,8.049,2.631,8.485,2.75l.049.014a1.894,1.894,0,0,0,2.293-.9l.012-.024a5.548,5.548,0,0,0,.3-4.531,5.891,5.891,0,0,0-3.217-3.294c-.724-.3-1.518-.632-2.286-.95-1.218-.5-2.476-1.025-3.472-1.453-.707-.287-1.292-.536-1.679-.7-.209-.089-.373-.159-.436-.183a.6.6,0,0,1-.3-.25L37.469,62.519a.6.6,0,0,1,.663-.9L51.278,64.9a.6.6,0,0,1,.373.276l4.2,7.027a.6.6,0,0,1-1.038.62l-4.072-6.811L39.266,63.147l7.02,11.539.28.119c.384.164.965.412,1.664.7l.012,0c.988.425,2.246.945,3.462,1.449.769.318,1.565.648,2.29.952a7.073,7.073,0,0,1,3.881,3.982l.005.014a6.759,6.759,0,0,1-.365,5.515,2.993,2.993,0,0,1-1.566,1.435A3.154,3.154,0,0,1,54.77,89.08Z" transform="translate(-0.872 -42.983)" fill="#fff"/>
        <path id="패스_689" data-name="패스 689" d="M65.154,35.689a.6.6,0,0,1-.586-.459l-2.463-9.9v0a3.87,3.87,0,0,0-1.058-1.87L46.828,9.573a3.95,3.95,0,0,0-2.753-1.114H1.854a.6.6,0,0,1,0-1.209h42.22A5.176,5.176,0,0,1,47.668,8.7l0,0L61.89,22.594a5.077,5.077,0,0,1,1.389,2.449l2.463,9.9a.6.6,0,0,1-.587.751Z" transform="translate(-0.872 -5.059)" fill="#fff"/>
      </g>
    </g>
  </g>
</svg>
