<?xml version="1.0" encoding="utf-8"?>
<!-- Generator: Adobe Illustrator 26.3.1, SVG Export Plug-In . SVG Version: 6.00 Build 0)  -->
<svg version="1.1" id="레이어_1" xmlns="http://www.w3.org/2000/svg" xmlns:xlink="http://www.w3.org/1999/xlink" x="0px"
	 y="0px" viewBox="0 0 700 700" style="enable-background:new 0 0 700 700;" xml:space="preserve">
<style type="text/css">
	.st0{fill:#0ECB81;}
</style>
<path class="st0" d="M350,666c83.8,0,164.2-33.3,223.4-92.6C632.7,514.2,666,433.8,666,350s-33.3-164.2-92.6-223.4
	C514.2,67.3,433.8,34,350,34s-164.2,33.3-223.4,92.6C67.3,185.8,34,266.2,34,350s33.3,164.2,92.6,223.4
	C185.8,632.7,266.2,666,350,666z M186,358.3c5.4-5.3,12.7-8.4,20.3-8.4c7.6,0,14.9,3,20.3,8.4l66.1,66.1l166.3-166.3
	c7.4-6.3,17.5-8.5,26.8-5.7c9.3,2.8,16.6,10.1,19.4,19.4c2.8,9.3,0.6,19.4-5.7,26.8L312.7,485.3l0,0c-5.4,5.4-12.7,8.4-20.3,8.4
	c-7.6,0-14.9-3-20.3-8.4L186,399.1c-5.4-5.4-8.5-12.7-8.5-20.4C177.5,371.1,180.5,363.7,186,358.3L186,358.3z"/>
</svg>
