<?xml version="1.0" encoding="utf-8"?>
<!-- Generator: Adobe Illustrator 26.5.0, SVG Export Plug-In . SVG Version: 6.00 Build 0)  -->
<svg version="1.1" id="레이어_1" xmlns="http://www.w3.org/2000/svg" xmlns:xlink="http://www.w3.org/1999/xlink" x="0px"
	 y="0px" viewBox="0 0 700 700" style="enable-background:new 0 0 700 700;" xml:space="preserve">
<style type="text/css">
	.st0{fill:#239CA3;}
</style>
<path class="st0" d="M597.7,149.3c-10.4,0.3-20.3,4.6-27.6,12l-296,296L125.7,342.5l0,0c-11.3-8.8-26.5-10.8-39.7-5.4
	c-13.3,5.4-22.6,17.5-24.6,31.7c-1.9,14.2,3.8,28.4,15.2,37.1L253,542.3c7.7,6,17.3,9,27.1,8.3c9.7-0.6,18.9-4.7,25.8-11.6
	l320.9-320.9c7.8-7.5,12.2-17.9,12.2-28.8c0-10.9-4.4-21.3-12.2-28.8C619.1,153,608.5,148.9,597.7,149.3L597.7,149.3z"/>
</svg>
