<?xml version="1.0" encoding="UTF-8"?><svg id="_레이어_2" xmlns="http://www.w3.org/2000/svg" viewBox="0 0 1120.49 1120.49"><defs><style>.cls-1{fill:#fff;}</style></defs><g id="_迹_1"><path class="cls-1" d="M560.24,0C251.32,0,0,251.33,0,560.25s251.32,560.25,560.24,560.25,560.25-251.32,560.25-560.25S869.17,0,560.24,0ZM247.04,385.83l240.95,187.57-240.95,172.9V385.83Zm625.59,409.21H247.04v-11.66l35.89-25.65,229.91-164.98,32.29,25.14c4.3,3.35,9.66,5.19,15.11,5.19s10.81-1.84,15.11-5.19l32.27-25.12,190.6,137.66,74.41,49.59v15.02Zm.83-47.54l-241-174.06,241-187.61v361.67Zm0-399.32l-19.31,14.39-293.9,228.79-293.83-228.74-19.38-15.72v-15.27H873.45v16.54Z"/></g></svg>