<svg xmlns="http://www.w3.org/2000/svg" xmlns:xlink="http://www.w3.org/1999/xlink" width="24" height="24" viewBox="0 0 24 24">
  <defs>
    <clipPath id="clip-path">
      <rect id="사각형_1349" data-name="사각형 1349" width="24" height="24" transform="translate(629 52)" fill="#fff"/>
    </clipPath>
  </defs>
  <g id="Exchange" transform="translate(-629 -52)" clip-path="url(#clip-path)">
    <g id="레이어_1" data-name="레이어 1" transform="translate(629.013 52.013)">
      <g id="그룹_433" data-name="그룹 433">
        <path id="패스_728" data-name="패스 728" d="M11.994,1.894A9.735,9.735,0,0,0,4.835,4.823a9.754,9.754,0,0,0-2.942,7.171,9.726,9.726,0,0,0,2.942,7.158,9.746,9.746,0,0,0,7.158,2.942,9.8,9.8,0,0,0,7.171-2.942,9.735,9.735,0,0,0,2.929-7.158,9.783,9.783,0,0,0-2.929-7.171,9.743,9.743,0,0,0-7.171-2.929Zm-.265,19a9.014,9.014,0,1,1,9.014-9.014,9.011,9.011,0,0,1-9.014,9.014Z" fill="none"/>
        <path id="패스_729" data-name="패스 729" d="M23.041,7.31A11.94,11.94,0,0,0,16.665.934a11.677,11.677,0,0,0-4.684-.947A11.573,11.573,0,0,0,7.31.934,11.94,11.94,0,0,0,.934,7.31a11.677,11.677,0,0,0-.947,4.684,11.573,11.573,0,0,0,.947,4.671A11.94,11.94,0,0,0,7.31,23.041a11.677,11.677,0,0,0,4.684.947,11.573,11.573,0,0,0,4.671-.947,11.94,11.94,0,0,0,6.376-6.376,11.677,11.677,0,0,0,.947-4.684,11.573,11.573,0,0,0-.947-4.671ZM19.165,19.152a9.754,9.754,0,0,1-7.171,2.942,9.726,9.726,0,0,1-7.158-2.942,9.746,9.746,0,0,1-2.942-7.158A9.8,9.8,0,0,1,4.835,4.823a9.735,9.735,0,0,1,7.158-2.929,9.783,9.783,0,0,1,7.171,2.929,9.743,9.743,0,0,1,2.929,7.171A9.715,9.715,0,0,1,19.165,19.152Z" fill="#fff"/>
        <path id="패스_730" data-name="패스 730" d="M11.009,15.024l1.553,1.553a6.25,6.25,0,0,1-2.159-.316,4.287,4.287,0,0,1-1.666-1.01,4.542,4.542,0,0,1-1.01-1.528,4.623,4.623,0,0,1-.341-1.717,4.45,4.45,0,0,1,.126-1.073A5.929,5.929,0,0,1,7.878,9.9L6.754,8.825a5.859,5.859,0,0,0-.669,1.528,6.406,6.406,0,0,0-.215,1.629,6.157,6.157,0,0,0,.454,2.3A5.944,5.944,0,0,0,7.663,16.3,5.5,5.5,0,0,0,9.81,17.624a8.284,8.284,0,0,0,2.6.454l-1.4,1.4,1.06,1.06,3.32-3.3-3.32-3.3-1.06,1.06Z" fill="#00e0ff"/>
        <path id="패스_731" data-name="패스 731" d="M16.337,7.663a5.374,5.374,0,0,0-2.159-1.326,7.968,7.968,0,0,0-2.6-.429l1.4-1.427-1.06-1.06L8.6,6.716l3.32,3.3,1.06-1.06L11.413,7.386a6.8,6.8,0,0,1,2.171.341,4.342,4.342,0,0,1,1.679,1,4.686,4.686,0,0,1,1.01,1.515,4.623,4.623,0,0,1,.341,1.717,4.45,4.45,0,0,1-.126,1.073,5.929,5.929,0,0,1-.366,1.035l1.124,1.073a5.859,5.859,0,0,0,.669-1.528,6.406,6.406,0,0,0,.215-1.629,6.518,6.518,0,0,0-.442-2.31,5.994,5.994,0,0,0-1.338-2.033Z" fill="#fff"/>
      </g>
    </g>
  </g>
</svg>
