<svg xmlns="http://www.w3.org/2000/svg" xmlns:xlink="http://www.w3.org/1999/xlink" width="22" height="22" viewBox="0 0 22 22">
  <defs>
    <clipPath id="clip-path">
      <rect id="사각형_1435" data-name="사각형 1435" width="22" height="22" transform="translate(380 474)" fill="#fff"/>
    </clipPath>
  </defs>
  <g id="Exchange_off" transform="translate(-380 -474)" clip-path="url(#clip-path)">
    <g id="레이어_1" data-name="레이어 1" transform="translate(380.012 474.012)">
      <g id="그룹_458" data-name="그룹 458">
        <path id="패스_770" data-name="패스 770" d="M10.994,1.736A8.923,8.923,0,0,0,4.432,4.421a8.941,8.941,0,0,0-2.7,6.573,8.915,8.915,0,0,0,2.7,6.562,8.934,8.934,0,0,0,6.562,2.7,8.978,8.978,0,0,0,6.573-2.7,8.923,8.923,0,0,0,2.685-6.562,8.968,8.968,0,0,0-2.685-6.573,8.931,8.931,0,0,0-6.573-2.685Zm-.243,17.417a8.263,8.263,0,1,1,8.263-8.263,8.261,8.261,0,0,1-8.263,8.263Z" fill="none"/>
        <path id="패스_771" data-name="패스 771" d="M21.12,6.7A10.945,10.945,0,0,0,15.276.856a10.7,10.7,0,0,0-4.294-.868A10.608,10.608,0,0,0,6.7.856,10.945,10.945,0,0,0,.856,6.7a10.7,10.7,0,0,0-.868,4.294,10.608,10.608,0,0,0,.868,4.282A10.945,10.945,0,0,0,6.7,21.12a10.7,10.7,0,0,0,4.294.868,10.608,10.608,0,0,0,4.282-.868,10.945,10.945,0,0,0,5.844-5.844,10.7,10.7,0,0,0,.868-4.294A10.608,10.608,0,0,0,21.12,6.7ZM17.568,17.556a8.941,8.941,0,0,1-6.573,2.7,8.915,8.915,0,0,1-6.562-2.7,8.934,8.934,0,0,1-2.7-6.562,8.978,8.978,0,0,1,2.7-6.573,8.923,8.923,0,0,1,6.562-2.685,8.968,8.968,0,0,1,6.573,2.685,8.931,8.931,0,0,1,2.685,6.573A8.9,8.9,0,0,1,17.568,17.556Z" fill="#fff"/>
        <path id="패스_772" data-name="패스 772" d="M10.092,13.772,11.515,15.2a5.729,5.729,0,0,1-1.979-.289,3.93,3.93,0,0,1-1.528-.926,4.164,4.164,0,0,1-.926-1.4,4.237,4.237,0,0,1-.312-1.574,4.079,4.079,0,0,1,.116-.984,5.435,5.435,0,0,1,.336-.949l-1.03-.984a5.371,5.371,0,0,0-.613,1.4,5.873,5.873,0,0,0-.2,1.493A5.644,5.644,0,0,0,5.8,13.089a5.449,5.449,0,0,0,1.227,1.852,5.045,5.045,0,0,0,1.967,1.215,7.593,7.593,0,0,0,2.384.417l-1.285,1.285.972.972,3.044-3.021-3.044-3.021-.972.972Z" fill="#fff"/>
        <path id="패스_773" data-name="패스 773" d="M14.975,7.025A4.926,4.926,0,0,0,13,5.81a7.3,7.3,0,0,0-2.384-.393L11.9,4.108l-.972-.972L7.881,6.157l3.044,3.021.972-.972L10.462,6.77a6.237,6.237,0,0,1,1.991.312A3.98,3.98,0,0,1,13.992,8a4.3,4.3,0,0,1,.926,1.389,4.237,4.237,0,0,1,.312,1.574,4.079,4.079,0,0,1-.116.984,5.435,5.435,0,0,1-.336.949l1.03.984a5.371,5.371,0,0,0,.613-1.4,5.873,5.873,0,0,0,.2-1.493,5.975,5.975,0,0,0-.405-2.118A5.5,5.5,0,0,0,14.987,7Z" fill="#fff"/>
      </g>
    </g>
  </g>
</svg>
