<svg xmlns="http://www.w3.org/2000/svg" xmlns:xlink="http://www.w3.org/1999/xlink" width="24" height="24" viewBox="0 0 24 24">
  <defs>
    <clipPath id="clip-path">
      <rect id="사각형_1340" data-name="사각형 1340" width="24" height="24" transform="translate(55 162)" fill="#fff"/>
    </clipPath>
  </defs>
  <g id="Follow" transform="translate(-55 -162)" clip-path="url(#clip-path)">
    <g id="레이어_1" data-name="레이어 1" transform="translate(55.013 162.013)">
      <g id="그룹_426" data-name="그룹 426">
        <path id="패스_704" data-name="패스 704" d="M11.741,6.565a3.965,3.965,0,0,0-2.9-1.2,4.095,4.095,0,0,0-4.1,4.1,4,4,0,0,0,.492,1.944,4.238,4.238,0,0,0,.707.972,3.965,3.965,0,0,0,2.9,1.2,3.947,3.947,0,0,0,2.588-.934c.1-.088.215-.164.316-.265a3.965,3.965,0,0,0,1.2-2.9,3.965,3.965,0,0,0-1.2-2.9Zm-2.9,5.113a2.165,2.165,0,0,1-1.565-.644,1.564,1.564,0,0,1-.227-.278,2.1,2.1,0,0,1-.417-1.288A2.165,2.165,0,0,1,7.272,7.9a2.225,2.225,0,0,1,3.131,0,2.225,2.225,0,0,1,0,3.131,2.335,2.335,0,0,1-.4.316,2.106,2.106,0,0,1-1.149.328Z" fill="#00e0ff"/>
        <path id="패스_705" data-name="패스 705" d="M15.491,9.81a3.109,3.109,0,0,0,0,4.368,3.081,3.081,0,0,0,5.265-2.184A3.089,3.089,0,0,0,15.491,9.81Z" fill="#fff"/>
        <path id="패스_706" data-name="패스 706" d="M23.041,7.31A11.94,11.94,0,0,0,16.665.934a11.677,11.677,0,0,0-4.684-.947A11.573,11.573,0,0,0,7.31.934,11.94,11.94,0,0,0,.934,7.31a11.677,11.677,0,0,0-.947,4.684,11.573,11.573,0,0,0,.947,4.671A11.94,11.94,0,0,0,7.31,23.041a11.677,11.677,0,0,0,4.684.947,11.573,11.573,0,0,0,4.671-.947,11.94,11.94,0,0,0,6.376-6.376,11.677,11.677,0,0,0,.947-4.684,11.573,11.573,0,0,0-.947-4.671Zm-1.464,7.827a11.006,11.006,0,0,1-1.313,2.613c-.4-.114-.833-.215-1.25-.29a7.615,7.615,0,0,0-1.326-.114,10.3,10.3,0,0,0-3.863.947A7.426,7.426,0,0,0,10.176,21.9a9.875,9.875,0,0,1-2.967-1.035,9.485,9.485,0,0,1-2.285-1.73,4.653,4.653,0,0,1-1.616-2.121,9.752,9.752,0,0,1-.985-2.146,9.908,9.908,0,0,1-.429-2.9A9.774,9.774,0,0,1,4.835,4.8a9.746,9.746,0,0,1,7.158-2.942A9.8,9.8,0,0,1,19.165,4.8a9.743,9.743,0,0,1,2.929,7.171,9.546,9.546,0,0,1-.518,3.144Z" fill="#fff"/>
        <path id="패스_707" data-name="패스 707" d="M6.653,18.23a8.864,8.864,0,0,1,2.083-.24c.227,0,.467,0,.694.013a3.472,3.472,0,0,1,.656.076A10.945,10.945,0,0,1,11,17.271a7.862,7.862,0,0,1,1.01-.682,13.863,13.863,0,0,0-1.54-.366,9.726,9.726,0,0,0-1.742-.151A11,11,0,0,0,6.06,16.4a10.818,10.818,0,0,0-2.538,1c-.076-.126-.139-.252-.215-.379a4.788,4.788,0,0,0,1.616,2.121c-.063-.063-.139-.114-.2-.189a8.014,8.014,0,0,1,1.944-.732Z" fill="#00e0ff"/>
      </g>
    </g>
  </g>
</svg>
