<svg xmlns="http://www.w3.org/2000/svg" xmlns:xlink="http://www.w3.org/1999/xlink" width="22" height="22" viewBox="0 0 22 22">
  <defs>
    <clipPath id="clip-path">
      <rect id="사각형_1495" data-name="사각형 1495" width="22" height="22" transform="translate(380 288)" fill="#1fe2eb"/>
    </clipPath>
  </defs>
  <g id="Funding_History_on" transform="translate(-380 -288)" clip-path="url(#clip-path)">
    <g id="레이어_1" data-name="레이어 1" transform="translate(381.059 288)">
      <g id="그룹_477" data-name="그룹 477">
        <path id="패스_819" data-name="패스 819" d="M1.754,19.076a1.158,1.158,0,0,0,1.17,1.17H14.035V17.906H1.754Z" fill="none"/>
        <path id="패스_820" data-name="패스 820" d="M5.263,16.152H15.789v2.924a1.17,1.17,0,1,0,2.339,0V2.7H5.263ZM6.187,4.3H17.415v7.263H6.187Z" fill="none"/>
        <path id="패스_821" data-name="패스 821" d="M18.269,1.392,16.632,0,14.994,1.392,13.357,0,11.719,1.392,10.082,0,8.444,1.392,6.807,0,5.17,1.392,3.556,0V16.152H0v2.924a2.78,2.78,0,0,0,.854,2.07A2.862,2.862,0,0,0,2.924,22H16.959a2.78,2.78,0,0,0,2.07-.854,2.843,2.843,0,0,0,.854-2.07V0ZM14.035,20.246H2.924a1.158,1.158,0,0,1-1.17-1.17v-1.17H14.035Zm4.094-1.17a1.17,1.17,0,1,1-2.339,0V16.152H5.263V2.7H18.129Z" fill="#1fe2eb"/>
        <rect id="사각형_1493" data-name="사각형 1493" width="6.632" height="1.754" transform="translate(6.655 5.333)" fill="#1fe2eb"/>
        <rect id="사각형_1494" data-name="사각형 1494" width="6.632" height="1.754" transform="translate(6.655 8.842)" fill="#1fe2eb"/>
        <path id="패스_822" data-name="패스 822" d="M15.719,5.17a1.045,1.045,0,0,0-.737.3,1.006,1.006,0,0,0-.3.737,1.025,1.025,0,0,0,.3.737,1.006,1.006,0,0,0,.737.3,1.025,1.025,0,0,0,.737-.3,1.006,1.006,0,0,0,.3-.737,1.025,1.025,0,0,0-.3-.737A1.006,1.006,0,0,0,15.719,5.17Z" fill="#1fe2eb"/>
        <path id="패스_823" data-name="패스 823" d="M15.719,8.678a1.045,1.045,0,0,0-.737.3,1.006,1.006,0,0,0-.3.737,1.025,1.025,0,0,0,.3.737,1.006,1.006,0,0,0,.737.3,1.025,1.025,0,0,0,.737-.3,1.006,1.006,0,0,0,.3-.737,1.025,1.025,0,0,0-.3-.737A1.006,1.006,0,0,0,15.719,8.678Z" fill="#1fe2eb"/>
      </g>
    </g>
  </g>
</svg>
