<svg xmlns="http://www.w3.org/2000/svg" xmlns:xlink="http://www.w3.org/1999/xlink" width="24" height="24" viewBox="0 0 24 24">
  <defs>
    <clipPath id="clip-path">
      <rect id="사각형_1342" data-name="사각형 1342" width="24" height="24" transform="translate(55 431)" fill="#fff"/>
    </clipPath>
  </defs>
  <g id="Funding_History" data-name="Funding History" transform="translate(-55 -431)" clip-path="url(#clip-path)">
    <g id="레이어_1" data-name="레이어 1" transform="translate(56.155 431)">
      <g id="그룹_437" data-name="그룹 437">
        <path id="패스_740" data-name="패스 740" d="M1.914,20.81A1.264,1.264,0,0,0,3.19,22.086H15.311V19.534H1.914Z" fill="none"/>
        <path id="패스_741" data-name="패스 741" d="M5.742,17.62H17.225v3.19a1.276,1.276,0,1,0,2.552,0V2.947H5.742ZM6.75,4.7H19v7.923H6.75Z" fill="none"/>
        <path id="패스_742" data-name="패스 742" d="M19.93,1.518,18.144,0,16.357,1.518,14.571,0,12.785,1.518,11,0,9.212,1.518,7.426,0,5.64,1.518,3.879,0V17.62H0v3.19a3.032,3.032,0,0,0,.931,2.258A3.123,3.123,0,0,0,3.19,24H18.5a3.032,3.032,0,0,0,2.258-.931,3.1,3.1,0,0,0,.931-2.258V0ZM15.311,22.086H3.19A1.264,1.264,0,0,1,1.914,20.81V19.534h13.4Zm4.466-1.276a1.276,1.276,0,1,1-2.552,0V17.62H5.742V2.947H19.777Z" fill="#fff"/>
        <rect id="사각형_1368" data-name="사각형 1368" width="7.234" height="1.914" transform="translate(7.26 5.818)" fill="#00e0ff"/>
        <rect id="사각형_1369" data-name="사각형 1369" width="7.234" height="1.914" transform="translate(7.26 9.646)" fill="#00e0ff"/>
        <path id="패스_743" data-name="패스 743" d="M17.148,5.64a1.14,1.14,0,0,0-.8.332,1.1,1.1,0,0,0-.332.8,1.119,1.119,0,0,0,.332.8,1.1,1.1,0,0,0,.8.332,1.119,1.119,0,0,0,.8-.332,1.1,1.1,0,0,0,.332-.8,1.119,1.119,0,0,0-.332-.8A1.1,1.1,0,0,0,17.148,5.64Z" fill="#00e0ff"/>
        <path id="패스_744" data-name="패스 744" d="M17.148,9.467a1.14,1.14,0,0,0-.8.332,1.1,1.1,0,0,0-.332.8,1.119,1.119,0,0,0,.332.8,1.1,1.1,0,0,0,.8.332,1.119,1.119,0,0,0,.8-.332,1.1,1.1,0,0,0,.332-.8,1.119,1.119,0,0,0-.332-.8A1.1,1.1,0,0,0,17.148,9.467Z" fill="#00e0ff"/>
      </g>
    </g>
  </g>
</svg>
