<svg xmlns="http://www.w3.org/2000/svg" xmlns:xlink="http://www.w3.org/1999/xlink" width="24" height="24" viewBox="0 0 24 24">
  <defs>
    <clipPath id="clip-path">
      <rect id="사각형_1348" data-name="사각형 1348" width="24" height="24" transform="translate(629 128)" fill="#fff"/>
    </clipPath>
  </defs>
  <g id="Futures_Exchange" data-name="Futures Exchange" transform="translate(-629 -128)" clip-path="url(#clip-path)">
    <g id="레이어_1" data-name="레이어 1" transform="translate(629.594 128.024)">
      <g id="그룹_434" data-name="그룹 434">
        <rect id="사각형_1358" data-name="사각형 1358" width="8.7" height="2.652" transform="translate(1.8 6.456)" fill="none"/>
        <rect id="사각형_1359" data-name="사각형 1359" width="6.756" height="11.256" transform="translate(3.744 10.92)" fill="none"/>
        <rect id="사각형_1360" data-name="사각형 1360" width="6.756" height="11.256" transform="translate(12.3 10.92)" fill="none"/>
        <rect id="사각형_1361" data-name="사각형 1361" width="8.7" height="2.652" transform="translate(12.3 6.456)" fill="none"/>
        <path id="패스_732" data-name="패스 732" d="M19.428,4.656H0v6.252H1.944V23.964H20.868V10.908h1.944V4.656H19.44ZM10.5,22.176H3.744V10.92H10.5Zm0-13.056H1.8V6.468h8.7Zm8.556,13.056H12.3V10.92h6.756ZM21,9.12H12.3V6.468H21Z" fill="#fff"/>
        <path id="패스_733" data-name="패스 733" d="M16.9,3.228A3.107,3.107,0,0,0,15.948.936,3.2,3.2,0,0,0,12.372.264a3.5,3.5,0,0,0-1.056.78A3.951,3.951,0,0,0,10.26.264,2.879,2.879,0,0,0,8.976-.024,3.107,3.107,0,0,0,6.684.924a3.107,3.107,0,0,0-.948,2.292,3.205,3.205,0,0,0,.1.768,1.6,1.6,0,0,0,.348.66h2.8A1.394,1.394,0,0,1,7.548,3.216,1.394,1.394,0,0,1,8.976,1.788,1.394,1.394,0,0,1,10.4,3.216,1.394,1.394,0,0,1,8.976,4.644h4.656A1.394,1.394,0,0,1,12.2,3.216a1.428,1.428,0,1,1,2.856,0,1.394,1.394,0,0,1-1.428,1.428h2.8a2.08,2.08,0,0,0,.336-.672,2.614,2.614,0,0,0,.1-.756Z" fill="#00e0ff"/>
        <rect id="사각형_1362" data-name="사각형 1362" width="1.8" height="19.32" transform="translate(10.5 4.656)" fill="#00e0ff"/>
      </g>
    </g>
  </g>
</svg>
