<svg xmlns="http://www.w3.org/2000/svg" xmlns:xlink="http://www.w3.org/1999/xlink" width="16" height="16" viewBox="0 0 16 16">
  <defs>
    <clipPath id="clip-path">
      <rect id="사각형_1289" data-name="사각형 1289" width="16" height="16" transform="translate(372 517)" fill="#fff"/>
    </clipPath>
  </defs>
  <g id="google_icon" transform="translate(-372 -517)" clip-path="url(#clip-path)">
    <path id="google-fill" d="M3.251,6.807A8,8,0,0,1,10.4,2.4a7.689,7.689,0,0,1,5.353,2.084L13.458,6.778a4.322,4.322,0,0,0-3.058-1.2,4.819,4.819,0,1,0,2.709,8.873,3.68,3.68,0,0,0,1.6-2.415H10.4V8.945h7.534a9.184,9.184,0,0,1,.146,1.636,7.8,7.8,0,0,1-2.386,5.88A7.637,7.637,0,0,1,10.4,18.4,8,8,0,0,1,3.251,6.807Z" transform="translate(369.76 514.6)" fill="#fff"/>
  </g>
</svg>
