<svg xmlns="http://www.w3.org/2000/svg" xmlns:xlink="http://www.w3.org/1999/xlink" width="24" height="24" viewBox="0 0 24 24">
  <defs>
    <clipPath id="clip-path">
      <rect id="사각형_1346" data-name="사각형 1346" width="24" height="24" transform="translate(355 280)" fill="#fff"/>
    </clipPath>
  </defs>
  <g id="History" transform="translate(-355 -280)" clip-path="url(#clip-path)">
    <g id="레이어_1" data-name="레이어 1" transform="translate(355 282.445)">
      <g id="그룹_432" data-name="그룹 432">
        <path id="패스_723" data-name="패스 723" d="M9.845,0V2.033a12.226,12.226,0,0,1,1.93,1.261V1.93H22.07V15.893a1.287,1.287,0,1,1-2.574,0v-1.93H11.775v-.631H9.845v.631H6.138V17.18a1.933,1.933,0,0,0,1.93,1.93H20.783a3.058,3.058,0,0,0,2.278-.939A3.128,3.128,0,0,0,24,15.893V0ZM8.069,17.18V15.893h9.5a3.835,3.835,0,0,0,.064.682,1.735,1.735,0,0,0,.232.6Z" fill="#fff"/>
        <g id="그룹_431" data-name="그룹 431">
          <path id="패스_724" data-name="패스 724" d="M9.433,3.976a3.2,3.2,0,0,0-.36-.193,5.91,5.91,0,0,0-.631-.335A6.952,6.952,0,0,0,5.855,2.96a6.65,6.65,0,0,0-1.531.167,7.523,7.523,0,0,0-1.377.463l.193.193.245.245L4.7,5.34H7.464V7.979a3.334,3.334,0,0,0,1.017.45,4.34,4.34,0,0,0,.991.116,4.079,4.079,0,0,0,1.467-.257A3.874,3.874,0,0,0,12.2,7.425l.476-.476-2.02-2.02a7.028,7.028,0,0,0-1.21-.952Z" fill="none"/>
          <path id="패스_725" data-name="패스 725" d="M12.676,4.247A3.012,3.012,0,0,0,12.3,3.8a6.643,6.643,0,0,0-.528-.5,10.642,10.642,0,0,0-1.93-1.261v.039c-.142-.077-.27-.129-.412-.206-.09-.051-.193-.09-.283-.142A6.6,6.6,0,0,0,7.9,1.274a9.08,9.08,0,0,0-2.046-.245,9.215,9.215,0,0,0-3.166.553A6.541,6.541,0,0,0,0,3.384l.4.4.245.245L3.886,7.271H5.534V8.879a4.969,4.969,0,0,0,1.982,1.235A5.929,5.929,0,0,0,9.33,10.4l4.7-2.1,3.8,3.8h1.351V10.745l-6.5-6.5ZM12.2,7.438a3.684,3.684,0,0,1-1.261.862,3.819,3.819,0,0,1-1.467.257,4.34,4.34,0,0,1-.991-.116,3.334,3.334,0,0,1-1.017-.45V5.353H4.7L3.384,4.041,3.14,3.8,2.947,3.6A7.523,7.523,0,0,1,4.324,3.14a6.65,6.65,0,0,1,1.531-.167,6.952,6.952,0,0,1,2.587.489,5.91,5.91,0,0,1,.631.335c.116.064.245.116.36.193a7.028,7.028,0,0,1,1.21.952l2.02,2.02-.476.476Z" fill="#00e0ff"/>
          <path id="패스_726" data-name="패스 726" d="M9.845,10.424v.064a5.162,5.162,0,0,0,2.11-.566,3.625,3.625,0,0,0,.489-.27,5.872,5.872,0,0,0,.5-.347,4.875,4.875,0,0,0,.489-.412c.193-.18.4-.36.592-.579l-4.7,2.1a3.435,3.435,0,0,0,.515,0Z" fill="#00e0ff"/>
          <path id="패스_727" data-name="패스 727" d="M9.845,10.424v2.921h1.93V10.012" fill="#fff"/>
        </g>
      </g>
    </g>
  </g>
</svg>
