<svg xmlns="http://www.w3.org/2000/svg" xmlns:xlink="http://www.w3.org/1999/xlink" width="22" height="22" viewBox="0 0 22 22">
  <defs>
    <clipPath id="clip-path">
      <rect id="사각형_1434" data-name="사각형 1434" width="22" height="22" transform="translate(380 412)" fill="#fff"/>
    </clipPath>
  </defs>
  <g id="History_off" transform="translate(-380 -412)" clip-path="url(#clip-path)">
    <g id="레이어_1" data-name="레이어 1" transform="translate(380 414.241)">
      <g id="그룹_457" data-name="그룹 457">
        <path id="패스_765" data-name="패스 765" d="M9.024,0V1.864A11.207,11.207,0,0,1,10.794,3.02V1.769h9.437v12.8a1.18,1.18,0,1,1-2.359,0V12.8H10.794v-.578H9.024V12.8h-3.4v2.949A1.772,1.772,0,0,0,7.4,17.517H19.051a2.8,2.8,0,0,0,2.088-.861A2.868,2.868,0,0,0,22,14.568V0ZM7.4,15.748v-1.18H16.1a3.515,3.515,0,0,0,.059.625,1.59,1.59,0,0,0,.212.554Z" fill="#fff"/>
        <g id="그룹_456" data-name="그룹 456">
          <path id="패스_766" data-name="패스 766" d="M8.647,3.645a2.934,2.934,0,0,0-.33-.177,5.417,5.417,0,0,0-.578-.307,6.373,6.373,0,0,0-2.371-.448,6.1,6.1,0,0,0-1.4.153A6.9,6.9,0,0,0,2.7,3.291l.177.177.224.224,1.2,1.2H6.842V7.314a3.056,3.056,0,0,0,.932.413,3.978,3.978,0,0,0,.908.106A3.739,3.739,0,0,0,10.027,7.6a3.551,3.551,0,0,0,1.156-.79l.436-.436L9.767,4.518a6.443,6.443,0,0,0-1.109-.873Z" fill="none"/>
          <path id="패스_767" data-name="패스 767" d="M11.619,3.893a2.761,2.761,0,0,0-.342-.413,6.089,6.089,0,0,0-.484-.46A9.755,9.755,0,0,0,9.024,1.864V1.9c-.13-.071-.248-.118-.377-.189-.083-.047-.177-.083-.26-.13a6.054,6.054,0,0,0-1.144-.413A8.324,8.324,0,0,0,5.367.944a8.447,8.447,0,0,0-2.9.507A6,6,0,0,0,0,3.1l.366.366.224.224L3.562,6.665h1.51V8.139A4.555,4.555,0,0,0,6.889,9.272a5.435,5.435,0,0,0,1.663.26l4.306-1.923,3.48,3.48h1.239V9.85L11.619,3.893Zm-.436,2.925a3.377,3.377,0,0,1-1.156.79,3.5,3.5,0,0,1-1.345.236,3.978,3.978,0,0,1-.908-.106,3.056,3.056,0,0,1-.932-.413V4.907H4.306L3.1,3.7,2.878,3.48,2.7,3.3a6.9,6.9,0,0,1,1.262-.425,6.1,6.1,0,0,1,1.4-.153,6.373,6.373,0,0,1,2.371.448,5.417,5.417,0,0,1,.578.307c.106.059.224.106.33.177a6.443,6.443,0,0,1,1.109.873l1.852,1.852-.436.436Z" fill="#fff"/>
          <path id="패스_768" data-name="패스 768" d="M9.024,9.555v.059a4.732,4.732,0,0,0,1.935-.519,3.322,3.322,0,0,0,.448-.248,5.382,5.382,0,0,0,.46-.318,4.468,4.468,0,0,0,.448-.377c.177-.165.366-.33.543-.531L8.552,9.543a3.149,3.149,0,0,0,.472,0Z" fill="#fff"/>
          <path id="패스_769" data-name="패스 769" d="M9.024,9.555v2.678h1.769V9.177" fill="#fff"/>
        </g>
      </g>
    </g>
  </g>
</svg>
