<svg xmlns="http://www.w3.org/2000/svg" xmlns:xlink="http://www.w3.org/1999/xlink" width="24" height="24" viewBox="0 0 24 24">
  <defs>
    <clipPath id="clip-path">
      <rect id="사각형_1288" data-name="사각형 1288" width="24" height="24" transform="translate(1865 20)" fill="#fff"/>
    </clipPath>
  </defs>
  <g id="language_icon" transform="translate(-1865 -20)" clip-path="url(#clip-path)">
    <path id="global-fill" d="M2.471,15.677H9.078A21.587,21.587,0,0,0,12.6,26.387,12.066,12.066,0,0,1,2.471,15.677Zm0-2.412A12.066,12.066,0,0,1,12.6,2.555a21.587,21.587,0,0,0-3.527,10.71Zm24,0H19.865a21.587,21.587,0,0,0-3.527-10.71A12.066,12.066,0,0,1,26.471,13.265Zm0,2.412a12.066,12.066,0,0,1-10.133,10.71,21.587,21.587,0,0,0,3.527-10.71Zm-14.978,0h5.956a19.185,19.185,0,0,1-2.978,9.155A19.185,19.185,0,0,1,11.494,15.677Zm0-2.412A19.185,19.185,0,0,1,14.471,4.11a19.185,19.185,0,0,1,2.978,9.155Z" transform="translate(1862.529 17.529)" fill="#fff"/>
  </g>
</svg>
