<?xml version="1.0" encoding="utf-8"?>
<!-- Generator: Adobe Illustrator 26.5.0, SVG Export Plug-In . SVG Version: 6.00 Build 0)  -->
<svg version="1.1" id="레이어_1" xmlns="http://www.w3.org/2000/svg" xmlns:xlink="http://www.w3.org/1999/xlink" x="0px"
	 y="0px" viewBox="0 0 700 700" style="enable-background:new 0 0 700 700;" xml:space="preserve">
<style type="text/css">
	.st0{fill:#239CA3;}
</style>
<path class="st0" d="M350,235.3c-15.8,15.8-41.5,15.8-57.3,0s-15.8-41.5,0-57.3L407.3,63.3c63.3-63.3,166-63.3,229.3,0
	s63.3,166,0,229.3L522,407.3c-15.8,15.8-41.5,15.8-57.3,0s-15.8-41.5,0-57.3l114.7-114.7c31.7-31.7,31.7-83,0-114.7
	s-83-31.7-114.7,0L350,235.3z M350,464.7c15.8-15.8,41.5-15.8,57.3,0s15.8,41.5,0,57.3L292.7,636.7c-63.3,63.3-166,63.3-229.3,0
	C0,573.4,0,470.7,63.3,407.3L178,292.7c15.8-15.8,41.5-15.8,57.3,0s15.8,41.5,0,57.3L120.7,464.7c-31.7,31.7-31.7,83,0,114.7
	s83,31.7,114.7,0L350,464.7z M464.7,235.3c15.8,15.8,15.8,41.5,0,57.3l-172,172c-15.8,15.8-41.5,15.8-57.3,0s-15.8-41.5,0-57.3
	l172-172C423.2,219.5,448.8,219.5,464.7,235.3L464.7,235.3z"/>
</svg>
