<?xml version="1.0" encoding="utf-8"?>
<!-- Generator: Adobe Illustrator 26.3.1, SVG Export Plug-In . SVG Version: 6.00 Build 0)  -->
<svg version="1.1" id="레이어_1" xmlns="http://www.w3.org/2000/svg" xmlns:xlink="http://www.w3.org/1999/xlink" x="0px"
	 y="0px" viewBox="0 0 700 700" style="enable-background:new 0 0 700 700;" xml:space="preserve">
<style type="text/css">
	.st0{fill:#FFFFFF;}
</style>
<path class="st0" d="M295.8,78H97.2C86.6,78,78,86.6,78,97.2v198.6c0,10.6,8.6,19.2,19.2,19.2h198.6c10.6,0,19.2-8.6,19.2-19.2V97.2
	C315,86.6,306.4,78,295.8,78z M276.6,276.6H116.4V116.4h160.2V276.6z M602.8,78H404.2c-10.6,0-19.2,8.6-19.2,19.2v198.6
	c0,10.6,8.6,19.2,19.2,19.2h198.6c10.6,0,19.2-8.6,19.2-19.2V97.2C622,86.6,613.4,78,602.8,78z M583.6,276.6H423.4V116.4h160.2
	V276.6z M295.8,385H97.2c-10.6,0-19.2,8.6-19.2,19.2v198.6c0,10.6,8.6,19.2,19.2,19.2h198.6c10.6,0,19.2-8.6,19.2-19.2V404.2
	C315,393.6,306.4,385,295.8,385z M276.6,583.6H116.4V423.4h160.2V583.6z M602.8,385H404.2c-10.6,0-19.2,8.6-19.2,19.2v198.6
	c0,10.6,8.6,19.2,19.2,19.2h198.6c10.6,0,19.2-8.6,19.2-19.2V404.2C622,393.6,613.4,385,602.8,385z M583.6,583.6H423.4V423.4h160.2
	V583.6z"/>
</svg>
