<?xml version="1.0" encoding="UTF-8"?><svg id="_레이어_2" xmlns="http://www.w3.org/2000/svg" viewBox="0 0 1110.04 1110.04"><defs><style>.cls-1{fill:#fff;}</style></defs><g id="_迹_1"><g><rect class="cls-1" x="515.78" y="820.61" width="78.49" height="24.22" rx="11.99" ry="11.99"/><path class="cls-1" d="M682.62,271.98h-255.21c-9.43,0-17.07,7.94-17.07,17.73v484.66c0,9.79,7.64,17.73,17.07,17.73h255.21c9.43,0,17.07-7.94,17.07-17.73V289.72c0-9.79-7.64-17.73-17.07-17.73Z"/><path class="cls-1" d="M555.02,0C248.98,0,0,248.98,0,555.02s248.98,555.02,555.02,555.02,555.02-248.98,555.02-555.02S861.06,0,555.02,0Zm172.25,816.27c0,29.56-24.95,53.52-55.73,53.52h-233.04c-30.78,0-55.73-23.96-55.73-53.52V285.31c0-28.31,22.95-51.26,51.26-51.26h241.98c28.31,0,51.26,22.95,51.26,51.26V816.27Z"/></g></g></svg>