<svg xmlns="http://www.w3.org/2000/svg" xmlns:xlink="http://www.w3.org/1999/xlink" width="24" height="24" viewBox="0 0 24 24">
  <defs>
    <clipPath id="clip-path">
      <rect id="사각형_1341" data-name="사각형 1341" width="24" height="24" transform="translate(55 238)" fill="#fff"/>
    </clipPath>
  </defs>
  <g id="My_Copytrade" data-name="My Copytrade" transform="translate(-55 -238)" clip-path="url(#clip-path)">
    <g id="레이어_1" data-name="레이어 1" transform="translate(55.013 238.013)">
      <g id="그룹_427" data-name="그룹 427">
        <path id="패스_708" data-name="패스 708" d="M11.994,1.894A9.746,9.746,0,0,0,4.835,4.835a9.746,9.746,0,0,0-2.942,7.158,9.746,9.746,0,0,0,2.942,7.158,9.746,9.746,0,0,0,7.158,2.942,9.746,9.746,0,0,0,7.158-2.942,9.746,9.746,0,0,0,2.942-7.158,9.746,9.746,0,0,0-2.942-7.158A9.746,9.746,0,0,0,11.994,1.894Zm5.921,6.855v8.509H6.451V4.848H17.915V8.762Z" fill="none"/>
        <path id="패스_709" data-name="패스 709" d="M23.041,7.31A12.278,12.278,0,0,0,20.478,3.5,11.923,11.923,0,0,0,16.665.934a11.677,11.677,0,0,0-4.684-.947A11.573,11.573,0,0,0,7.31.934,11.94,11.94,0,0,0,.934,7.31a11.677,11.677,0,0,0-.947,4.684,11.573,11.573,0,0,0,.947,4.671A12.278,12.278,0,0,0,3.5,20.478,11.923,11.923,0,0,0,7.31,23.041a11.677,11.677,0,0,0,4.684.947,11.573,11.573,0,0,0,4.671-.947,11.94,11.94,0,0,0,6.376-6.376,11.677,11.677,0,0,0,.947-4.684,11.573,11.573,0,0,0-.947-4.671ZM19.152,19.152a9.746,9.746,0,0,1-7.158,2.942,9.746,9.746,0,0,1-7.158-2.942,9.746,9.746,0,0,1-2.942-7.158A9.746,9.746,0,0,1,4.835,4.835a9.746,9.746,0,0,1,7.158-2.942,9.746,9.746,0,0,1,7.158,2.942,9.746,9.746,0,0,1,2.942,7.158A9.746,9.746,0,0,1,19.152,19.152Z" fill="#fff"/>
        <path id="패스_710" data-name="패스 710" d="M12.966,9.835l.606.581.568.619-.568-.619Z" fill="#00e0ff"/>
        <path id="패스_711" data-name="패스 711" d="M17.486,7.7,16.324,6.527a1.489,1.489,0,0,0-.5-.341,1.535,1.535,0,0,0-.581-.114,1.649,1.649,0,0,0-.543.1,1.391,1.391,0,0,0-.5.328L7.335,13.319v3.333h3.333l6.817-6.817a1.5,1.5,0,0,0,.328-.518,1.482,1.482,0,0,0,.1-.555,1.4,1.4,0,0,0-.114-.543,1.779,1.779,0,0,0-.316-.5ZM10.037,15.15h-1.2v-1.2l4.128-4.116.593.581.568.619-4.1,4.116Zm5.214-7.575,1.161,1.174Z" fill="#00e0ff"/>
        <path id="패스_712" data-name="패스 712" d="M12.966,9.835l1.174,1.2-.568-.619Z" fill="#00e0ff"/>
      </g>
    </g>
  </g>
</svg>
