<svg xmlns="http://www.w3.org/2000/svg" xmlns:xlink="http://www.w3.org/1999/xlink" width="22" height="22" viewBox="0 0 22 22">
  <defs>
    <clipPath id="clip-path">
      <rect id="사각형_1449" data-name="사각형 1449" width="22" height="22" transform="translate(380 226)" fill="#1fe2eb"/>
    </clipPath>
  </defs>
  <g id="Property_on" transform="translate(-380 -226)" clip-path="url(#clip-path)">
    <g id="레이어_1" data-name="레이어 1" transform="translate(380 226.611)">
      <g id="그룹_461" data-name="그룹 461">
        <path id="패스_779" data-name="패스 779" d="M9.387,15.889v-11h9.558V2.212a.376.376,0,0,0-.379-.379H2.212a.376.376,0,0,0-.379.379V18.566a.376.376,0,0,0,.379.379H18.566a.376.376,0,0,0,.379-.379V15.889H9.387Z" fill="none"/>
        <path id="패스_780" data-name="패스 780" d="M18.944,15.889v2.677a.376.376,0,0,1-.379.379H2.212a.376.376,0,0,1-.379-.379V2.212a.376.376,0,0,1,.379-.379H18.566a.376.376,0,0,1,.379.379V4.889h1.833V2.212A2.161,2.161,0,0,0,20.13.648,2.141,2.141,0,0,0,18.566,0H2.212A2.161,2.161,0,0,0,.648.648,2.141,2.141,0,0,0,0,2.212V18.566a2.212,2.212,0,0,0,2.212,2.212H18.566a2.212,2.212,0,0,0,2.212-2.212V15.889H18.944Z" fill="#1fe2eb"/>
        <path id="패스_781" data-name="패스 781" d="M20.778,5.121V4.889h-.99A2.228,2.228,0,0,1,20.778,5.121Z" fill="#1fe2eb"/>
        <path id="패스_782" data-name="패스 782" d="M18.944,15.241v.648h.843a2.228,2.228,0,0,0,.99-.232v-.4H18.944Z" fill="#1fe2eb"/>
        <path id="패스_783" data-name="패스 783" d="M18.944,5.537V4.889H11.99A2.212,2.212,0,0,0,9.778,7.1v6.576a2.212,2.212,0,0,0,2.212,2.212h6.954v-.648h1.833v.4a2.086,2.086,0,0,0,.574-.416A2.141,2.141,0,0,0,22,13.664V7.089a2.161,2.161,0,0,0-.648-1.564,2.373,2.373,0,0,0-.574-.416v.4H18.944Zm1.222,8.14a.376.376,0,0,1-.379.379h-7.8a.376.376,0,0,1-.379-.379V7.1a.376.376,0,0,1,.379-.379h7.8a.376.376,0,0,1,.379.379Z" fill="#1fe2eb"/>
        <path id="패스_784" data-name="패스 784" d="M19.788,15.889h.99v-.232A2.189,2.189,0,0,1,19.788,15.889Z" fill="#1fe2eb"/>
        <path id="패스_785" data-name="패스 785" d="M15.278,8.556a1.762,1.762,0,0,0-1.3.538,1.829,1.829,0,1,0,1.3-.538Z" fill="#1fe2eb"/>
        <path id="패스_786" data-name="패스 786" d="M18.944,4.889v.648h1.833v-.4a2.189,2.189,0,0,0-.99-.232h-.843Z" fill="#1fe2eb"/>
      </g>
    </g>
  </g>
</svg>
