<svg xmlns="http://www.w3.org/2000/svg" xmlns:xlink="http://www.w3.org/1999/xlink" width="24" height="24" viewBox="0 0 24 24">
  <defs>
    <clipPath id="clip-path">
      <rect id="사각형_1345" data-name="사각형 1345" width="24" height="24" transform="translate(355 52)" fill="#fff"/>
    </clipPath>
  </defs>
  <g id="Property" transform="translate(-355 -52)" clip-path="url(#clip-path)">
    <g id="레이어_1" data-name="레이어 1" transform="translate(355 52.667)">
      <g id="그룹_428" data-name="그룹 428">
        <path id="패스_713" data-name="패스 713" d="M10.24,17.333v-12H20.667V2.413A.41.41,0,0,0,20.253,2H2.413A.41.41,0,0,0,2,2.413v17.84a.41.41,0,0,0,.413.413h17.84a.41.41,0,0,0,.413-.413v-2.92H10.24Z" fill="none"/>
        <path id="패스_714" data-name="패스 714" d="M20.667,17.333v2.92a.41.41,0,0,1-.413.413H2.413A.41.41,0,0,1,2,20.253V2.413A.41.41,0,0,1,2.413,2h17.84a.41.41,0,0,1,.413.413v2.92h2V2.413A2.357,2.357,0,0,0,21.96.707,2.335,2.335,0,0,0,20.253,0H2.413A2.357,2.357,0,0,0,.707.707,2.335,2.335,0,0,0,0,2.413v17.84a2.413,2.413,0,0,0,2.413,2.413h17.84a2.413,2.413,0,0,0,2.413-2.413v-2.92h-2Z" fill="#fff"/>
        <path id="패스_715" data-name="패스 715" d="M22.667,5.587V5.333h-1.08A2.43,2.43,0,0,1,22.667,5.587Z" fill="#00e0ff"/>
        <path id="패스_716" data-name="패스 716" d="M20.667,16.627v.707h.92a2.43,2.43,0,0,0,1.08-.253v-.44h-2Z" fill="#00e0ff"/>
        <path id="패스_717" data-name="패스 717" d="M20.667,6.04V5.333H13.08a2.413,2.413,0,0,0-2.413,2.413V14.92a2.413,2.413,0,0,0,2.413,2.413h7.587v-.707h2v.44a2.275,2.275,0,0,0,.627-.453A2.335,2.335,0,0,0,24,14.907V7.733a2.357,2.357,0,0,0-.707-1.707,2.589,2.589,0,0,0-.627-.453v.44h-2ZM22,14.92a.41.41,0,0,1-.413.413H13.08a.41.41,0,0,1-.413-.413V7.747a.41.41,0,0,1,.413-.413h8.507A.41.41,0,0,1,22,7.747Z" fill="#00e0ff"/>
        <path id="패스_718" data-name="패스 718" d="M21.587,17.333h1.08V17.08A2.388,2.388,0,0,1,21.587,17.333Z" fill="#00e0ff"/>
        <path id="패스_719" data-name="패스 719" d="M16.667,9.333a1.922,1.922,0,0,0-1.413.587,2,2,0,1,0,1.413-.587Z" fill="#00e0ff"/>
        <path id="패스_720" data-name="패스 720" d="M20.667,5.333V6.04h2V5.6a2.388,2.388,0,0,0-1.08-.253h-.92Z" fill="#00e0ff"/>
      </g>
    </g>
  </g>
</svg>
