<svg xmlns="http://www.w3.org/2000/svg" xmlns:xlink="http://www.w3.org/1999/xlink" width="16" height="16" viewBox="0 0 16 16">
  <defs>
    <clipPath id="clip-path">
      <rect id="사각형_282" data-name="사각형 282" width="16" height="16" transform="translate(372 171)" fill="#b9b9ba" stroke="#707070" stroke-width="1"/>
    </clipPath>
  </defs>
  <g id="search" transform="translate(-372 -171)" clip-path="url(#clip-path)">
    <path id="search_24dp_434343_FILL0_wght200_GRAD0_opsz24" d="M19.027-3.756,12.913-9.871a5.372,5.372,0,0,1-1.685.965,5.629,5.629,0,0,1-1.914.342,5.4,5.4,0,0,1-3.971-1.624,5.4,5.4,0,0,1-1.625-3.969,5.41,5.41,0,0,1,1.624-3.972,5.394,5.394,0,0,1,3.969-1.627,5.409,5.409,0,0,1,3.972,1.625,5.4,5.4,0,0,1,1.627,3.971,5.517,5.517,0,0,1-.361,1.97,5.352,5.352,0,0,1-.947,1.628l6.115,6.115-.691.691ZM9.315-9.54A4.462,4.462,0,0,0,12.6-10.878a4.462,4.462,0,0,0,1.338-3.282A4.462,4.462,0,0,0,12.6-17.441a4.462,4.462,0,0,0-3.282-1.338,4.462,4.462,0,0,0-3.282,1.338A4.462,4.462,0,0,0,4.695-14.16a4.462,4.462,0,0,0,1.338,3.282A4.462,4.462,0,0,0,9.315-9.54Z" transform="translate(368.282 190.756)" fill="#b9b9ba"/>
  </g>
</svg>
