<svg xmlns="http://www.w3.org/2000/svg" xmlns:xlink="http://www.w3.org/1999/xlink" width="16" height="16" viewBox="0 0 16 16">
  <defs>
    <clipPath id="clip-path">
      <rect id="사각형_1291" data-name="사각형 1291" width="16" height="16" transform="translate(498 517)" fill="#fff"/>
    </clipPath>
  </defs>
  <g id="telegram_icon" transform="translate(-498 -517)" clip-path="url(#clip-path)">
    <path id="telegram-2-fill" d="M2.087,11.646q6.442-2.807,8.592-3.7c4.092-1.7,4.942-2,5.5-2.007a.969.969,0,0,1,.571.171.621.621,0,0,1,.21.4,2.6,2.6,0,0,1,.025.58c-.222,2.33-1.181,7.983-1.669,10.592-.207,1.1-.613,1.474-1.007,1.51-.856.079-1.505-.565-2.334-1.109-1.3-.85-2.029-1.379-3.288-2.209-1.455-.959-.512-1.485.317-2.346.217-.225,3.987-3.654,4.06-3.965a.3.3,0,0,0-.069-.26.339.339,0,0,0-.3-.03q-.2.044-6.214,4.108a2.8,2.8,0,0,1-1.6.59,10.517,10.517,0,0,1-2.29-.542c-.923-.3-1.656-.459-1.592-.968Q1.041,12.062,2.087,11.646Z" transform="translate(497.013 512.433)" fill="#fff"/>
  </g>
</svg>
