<svg xmlns="http://www.w3.org/2000/svg" xmlns:xlink="http://www.w3.org/1999/xlink" width="24" height="24" viewBox="0 0 24 24">
  <defs>
    <clipPath id="clip-path">
      <rect id="사각형_1614" data-name="사각형 1614" width="24" height="24" transform="translate(784 763)" fill="#fff"/>
    </clipPath>
  </defs>
  <g id="telegram" transform="translate(-784 -763)" clip-path="url(#clip-path)">
    <path id="telegram-fill" d="M26.4,14.4a12,12,0,1,1-12-12A12,12,0,0,1,26.4,14.4ZM14.83,11.259q-1.751.728-7,3.014-.852.339-.893.663c-.046.365.412.509,1.034.7l.262.084a8.567,8.567,0,0,0,1.865.441,2.278,2.278,0,0,0,1.3-.481q4.9-3.309,5.062-3.345a.276.276,0,0,1,.248.024.245.245,0,0,1,.056.212A33.887,33.887,0,0,1,14,15.3c-.277.258-.547.521-.819.783-.569.549-1,.96.024,1.632s2.075,1.361,3.083,2.08a2.283,2.283,0,0,0,1.5.622c.321-.03.652-.331.82-1.23.4-2.125,1.179-6.73,1.36-8.627a2.117,2.117,0,0,0-.02-.472.506.506,0,0,0-.171-.325.789.789,0,0,0-.465-.14C18.855,9.632,18.163,9.873,14.83,11.259Z" transform="translate(781.6 760.6)" fill="#fff"/>
  </g>
</svg>
