<svg xmlns="http://www.w3.org/2000/svg" width="250.061" height="250" viewBox="0 0 250.061 250">
  <g id="Warning_250px" transform="translate(-8.496 -8.501)">
    <path id="패스_102" data-name="패스 102" d="M248.46,121.1,128.894,1.531a5.64,5.64,0,0,0-7.728,0L1.6,121.1a5.466,5.466,0,0,0,0,7.728L121.166,248.4a5.464,5.464,0,0,0,7.728,0L248.46,128.829a5.464,5.464,0,0,0,0-7.728M125.03,236.808,13.187,124.965,125.03,13.123,236.872,124.965Z" transform="translate(8.496 8.502)" fill="#6e6e6e"/>
    <path id="패스_103" data-name="패스 103" d="M33.685,127.984l94.37,94.368,94.37-94.368-94.37-94.367Zm94.371,55.491a12.1,12.1,0,1,1,12.1-12.1,12.1,12.1,0,0,1-12.1,12.1M138.7,82.66c.015.324.015.663,0,.98l-2.6,56.63a8.051,8.051,0,0,1-16.085,0l-2.6-56.63a10.658,10.658,0,0,1,21.293-.98" transform="translate(5.471 5.483)" fill="#f6bf11"/>
    <rect id="사각형_181" data-name="사각형 181" width="250.061" height="250" transform="translate(8.496 8.502)" fill="none"/>
  </g>
</svg>
