<svg xmlns="http://www.w3.org/2000/svg" xmlns:xlink="http://www.w3.org/1999/xlink" width="24" height="24" viewBox="0 0 24 24">
  <defs>
    <clipPath id="clip-path">
      <rect id="사각형_1350" data-name="사각형 1350" width="24" height="24" transform="translate(629 204)" fill="#fff"/>
    </clipPath>
  </defs>
  <g id="Withdrawal_List" data-name="Withdrawal List" transform="translate(-629 -204)" clip-path="url(#clip-path)">
    <g id="레이어_1" data-name="레이어 1" transform="translate(629.013 204.013)">
      <g id="그룹_435" data-name="그룹 435">
        <path id="패스_734" data-name="패스 734" d="M11.994,1.894A9.735,9.735,0,0,0,4.835,4.823a9.754,9.754,0,0,0-2.942,7.171,9.726,9.726,0,0,0,2.942,7.158,9.746,9.746,0,0,0,7.158,2.942,9.8,9.8,0,0,0,7.171-2.942,9.735,9.735,0,0,0,2.929-7.158,9.783,9.783,0,0,0-2.929-7.171,9.743,9.743,0,0,0-7.171-2.929Zm0,18.445c-4.974,0-9.014-3.737-9.014-8.345s4.04-8.345,9.014-8.345,9.014,3.737,9.014,8.345S16.968,20.339,11.994,20.339Z" fill="none"/>
        <path id="패스_735" data-name="패스 735" d="M23.041,7.31A11.94,11.94,0,0,0,16.665.934a11.677,11.677,0,0,0-4.684-.947A11.573,11.573,0,0,0,7.31.934,11.94,11.94,0,0,0,.934,7.31a11.677,11.677,0,0,0-.947,4.684,11.573,11.573,0,0,0,.947,4.671A11.94,11.94,0,0,0,7.31,23.041a11.677,11.677,0,0,0,4.684.947,11.573,11.573,0,0,0,4.671-.947,11.94,11.94,0,0,0,6.376-6.376,11.677,11.677,0,0,0,.947-4.684,11.573,11.573,0,0,0-.947-4.671ZM19.165,19.152a9.754,9.754,0,0,1-7.171,2.942,9.726,9.726,0,0,1-7.158-2.942,9.746,9.746,0,0,1-2.942-7.158A9.8,9.8,0,0,1,4.835,4.823a9.735,9.735,0,0,1,7.158-2.929,9.783,9.783,0,0,1,7.171,2.929,9.743,9.743,0,0,1,2.929,7.171A9.715,9.715,0,0,1,19.165,19.152Z" fill="#fff"/>
        <rect id="사각형_1363" data-name="사각형 1363" width="8.206" height="1.894" transform="translate(5.997 9.784)" fill="#fff"/>
        <rect id="사각형_1364" data-name="사각형 1364" width="8.206" height="1.894" transform="translate(5.997 5.997)" fill="#fff"/>
        <path id="패스_736" data-name="패스 736" d="M12.8,15.125l-1.351,1.351,3.131,3.131,5.833-5.845-1.351-1.326-4.482,4.482Z" fill="#00e0ff"/>
        <rect id="사각형_1365" data-name="사각형 1365" width="3.156" height="1.894" transform="translate(5.997 13.572)" fill="#fff"/>
      </g>
    </g>
  </g>
</svg>
