<svg xmlns="http://www.w3.org/2000/svg" xmlns:xlink="http://www.w3.org/1999/xlink" width="22" height="22" viewBox="0 0 22 22">
  <defs>
    <clipPath id="clip-path">
      <rect id="사각형_1492" data-name="사각형 1492" width="22" height="22" transform="translate(380 598)" fill="#1fe2eb"/>
    </clipPath>
  </defs>
  <g id="Withdrawal_Request_List_on" transform="translate(-380 -598)" clip-path="url(#clip-path)">
    <g id="레이어_1" data-name="레이어 1" transform="translate(380.012 598.012)">
      <g id="그룹_476" data-name="그룹 476">
        <path id="패스_816" data-name="패스 816" d="M10.994,1.736A8.923,8.923,0,0,0,4.432,4.421a8.941,8.941,0,0,0-2.7,6.573,8.915,8.915,0,0,0,2.7,6.562,8.934,8.934,0,0,0,6.562,2.7,8.978,8.978,0,0,0,6.573-2.7,8.923,8.923,0,0,0,2.685-6.562,8.968,8.968,0,0,0-2.685-6.573,8.931,8.931,0,0,0-6.573-2.685Zm0,16.908c-4.56,0-8.263-3.426-8.263-7.65s3.7-7.65,8.263-7.65,8.263,3.426,8.263,7.65S15.554,18.644,10.994,18.644Z" fill="none"/>
        <path id="패스_817" data-name="패스 817" d="M21.12,6.7A10.945,10.945,0,0,0,15.276.856a10.7,10.7,0,0,0-4.294-.868A10.608,10.608,0,0,0,6.7.856,10.945,10.945,0,0,0,.856,6.7a10.7,10.7,0,0,0-.868,4.294,10.608,10.608,0,0,0,.868,4.282A10.945,10.945,0,0,0,6.7,21.12a10.7,10.7,0,0,0,4.294.868,10.608,10.608,0,0,0,4.282-.868,10.945,10.945,0,0,0,5.844-5.844,10.7,10.7,0,0,0,.868-4.294A10.608,10.608,0,0,0,21.12,6.7ZM17.568,17.556a8.941,8.941,0,0,1-6.573,2.7,8.915,8.915,0,0,1-6.562-2.7,8.934,8.934,0,0,1-2.7-6.562,8.978,8.978,0,0,1,2.7-6.573,8.923,8.923,0,0,1,6.562-2.685,8.968,8.968,0,0,1,6.573,2.685,8.931,8.931,0,0,1,2.685,6.573A8.9,8.9,0,0,1,17.568,17.556Z" fill="#1fe2eb"/>
        <rect id="사각형_1489" data-name="사각형 1489" width="7.522" height="1.736" transform="translate(5.497 8.969)" fill="#1fe2eb"/>
        <rect id="사각형_1490" data-name="사각형 1490" width="7.522" height="1.736" transform="translate(5.497 5.497)" fill="#1fe2eb"/>
        <path id="패스_818" data-name="패스 818" d="M11.735,13.864,10.5,15.1l2.87,2.87,5.347-5.358L17.475,11.4l-4.108,4.108Z" fill="#1fe2eb"/>
        <rect id="사각형_1491" data-name="사각형 1491" width="2.893" height="1.736" transform="translate(5.497 12.441)" fill="#1fe2eb"/>
      </g>
    </g>
  </g>
</svg>
